<svg width="1133" height="426" viewBox="0 0 1133 426" fill="none" xmlns="http://www.w3.org/2000/svg">
<path d="M228.492 -16.1451C270.046 99.676 19.3226 50.2875 94.1078 268.778C168.893 487.268 -149.204 250.096 -190.759 134.275C-232.314 18.4539 -172.148 -109.11 -56.3751 -150.648C59.3978 -192.185 186.937 -131.966 228.492 -16.1451Z" fill="#FED06A" fill-opacity="0.43"/>
<path d="M230.731 -33.2028C235.913 -18.7607 236.53 -6.91766 233.814 3.18245C231.097 13.2835 225.038 21.6698 216.814 29.1843C208.588 36.7009 198.208 43.3358 186.863 49.9363C182.579 52.4289 178.156 54.9177 173.66 57.447C166.262 61.6093 158.669 65.8813 151.182 70.46C127.101 85.1884 104.016 103.151 91.6448 131.127C79.2716 159.108 77.637 197.057 96.3458 251.717C105.69 279.016 108.885 299.165 107.27 313.309C106.462 320.377 104.454 325.935 101.422 330.135C98.3918 334.334 94.3289 337.191 89.3861 338.845C79.4875 342.159 66.051 340.655 50.3495 335.396C34.6566 330.14 16.7408 321.147 -2.09242 309.538C-39.7581 286.321 -81.0634 252.657 -115.548 217.561C-150.039 182.459 -177.679 145.951 -188.049 117.049C-229.557 1.35724 -169.459 -126.064 -53.8161 -167.555C61.8267 -209.045 189.223 -148.894 230.731 -33.2028Z" stroke="black" stroke-opacity="0.2" stroke-width="0.5"/>
<path opacity="0.8" d="M234.499 27C560.5 -16 854.499 65.5 1013.5 250" stroke="#151E36" stroke-width="0.5" stroke-dasharray="3 5"/>
<path d="M726.453 65.9522C726.912 62.6528 729.959 60.3505 733.258 60.8097C736.558 61.2689 738.86 64.3158 738.401 67.6151C737.942 70.9144 734.895 73.2168 731.595 72.7576C728.296 72.2984 725.994 69.2515 726.453 65.9522Z" fill="white" stroke="black"/>
<path d="M1130.89 321.318C1138.67 370.094 1104.94 416.016 1055.56 423.888C1006.19 431.759 959.853 398.599 952.078 349.822C944.302 301.046 978.029 255.123 1027.41 247.252C1076.79 239.381 1123.12 272.541 1130.89 321.318Z" fill="#3A4C57" fill-opacity="0.13"/>
</svg>
