<svg width="74" height="69" viewBox="0 0 74 69" fill="none" xmlns="http://www.w3.org/2000/svg">
<path fill-rule="evenodd" clip-rule="evenodd" d="M23.5194 66.9092C24.1379 66.9092 24.6393 67.3772 24.6393 67.9546C24.6393 68.5321 24.1379 69.0001 23.5194 69.0001C22.9008 69.0001 22.3994 68.5321 22.3994 67.9546C22.3994 67.3772 22.9008 66.9092 23.5194 66.9092Z" fill="#00264E"/>
<path fill-rule="evenodd" clip-rule="evenodd" d="M50.3973 66.9092C51.0159 66.9092 51.5172 67.3772 51.5172 67.9546C51.5172 68.5321 51.0159 69.0001 50.3973 69.0001C49.7787 69.0001 49.2773 68.5321 49.2773 67.9546C49.2773 67.3772 49.7787 66.9092 50.3973 66.9092Z" fill="#00264E"/>
<path fill-rule="evenodd" clip-rule="evenodd" d="M35.8376 20.9092C37.0747 20.9092 38.0775 21.3772 38.0775 21.9546C38.0775 22.5321 37.0747 23.0001 35.8376 23.0001C34.6004 23.0001 33.5977 22.5321 33.5977 21.9546C33.5977 21.3772 34.6004 20.9092 35.8376 20.9092Z" fill="#00264E"/>
<path fill-rule="evenodd" clip-rule="evenodd" d="M64.3837 35.6663C61.5858 38.0467 59.981 41.4267 59.981 44.9398V47.9352C59.981 49.2762 58.8124 50.3671 57.3758 50.3671H44.0547C42.6178 50.3671 41.4492 49.2762 41.4492 47.9352V44.9398C41.4492 42.2835 40.543 39.7143 38.9063 37.6017C43.6732 33.5084 46.4056 27.7043 46.4056 21.6594C46.4056 15.817 43.9513 10.3399 39.4947 6.23707C39.4275 6.1756 39.3594 6.11579 39.292 6.05503C42.4864 3.99761 46.3225 2.76675 50.4254 2.71331C50.5229 2.71189 50.6196 2.71143 50.7171 2.71143C56.0874 2.71143 61.1385 4.64306 64.967 8.16753C68.866 11.7568 71.0133 16.5483 71.0133 21.6592C71.0133 26.9765 68.5968 32.0818 64.3837 35.6663ZM57.486 53.0781V59.567C57.486 60.7077 56.4916 61.636 55.2695 61.636H46.1599C44.9379 61.636 43.9435 60.7077 43.9435 59.567V53.0781H44.0542H57.3753H57.486ZM37.4547 8.16801C41.3537 11.7573 43.501 16.5488 43.501 21.6597C43.501 26.9397 41.1176 32.0097 36.959 35.59C32.6923 31.9168 30.3103 26.7146 30.4204 21.2909C30.5283 15.9832 33.0573 11.1648 37.0026 7.76514C37.1548 7.89754 37.306 8.03112 37.4547 8.16801ZM32.4681 44.9398V47.9352C32.4681 49.2762 31.2994 50.3671 29.8628 50.3671H16.5417C15.1049 50.3671 13.9362 49.2762 13.9362 47.9352V44.9398C13.9362 41.417 12.3429 38.0462 9.56466 35.6923C5.22297 32.0137 2.79658 26.7647 2.90777 21.2906C3.11318 11.1877 12.0871 2.85399 22.9121 2.71331C23.0099 2.71189 23.1067 2.71143 23.2039 2.71143C27.3637 2.71143 31.3313 3.87112 34.6883 6.03138C34.5809 6.12738 34.4738 6.22361 34.3681 6.32195C30.0637 10.3191 27.6302 15.6168 27.516 21.2391C27.3896 27.4499 30.1227 33.4068 35.0173 37.6065C33.3766 39.7299 32.4681 42.297 32.4681 44.9398ZM29.9744 53.0781V59.567C29.9744 60.7077 28.98 61.636 27.7577 61.636H18.648C17.426 61.636 16.4319 60.7077 16.4319 59.567V53.0781H16.5425H29.8637H29.9744ZM67.0055 6.2371C62.5496 2.13528 56.6475 -0.0838725 50.3839 0.00242553C45.5108 0.0655571 40.8576 1.54726 36.9789 4.22697C32.9222 1.41865 28.0208 -0.0684927 22.8721 0.00242553C16.8484 0.0806951 11.1606 2.32512 6.85636 6.32198C2.55191 10.3191 0.118417 15.6168 0.00418828 21.2391C-0.122956 27.4958 2.64993 33.4955 7.6129 37.7001C9.78576 39.5412 11.0319 42.1798 11.0319 44.9399V47.9352C11.0319 49.7328 12.0258 51.3171 13.5267 52.2368V59.5671C13.5267 62.2029 15.8239 64.3473 18.6475 64.3473H27.7571C30.5806 64.3473 32.8779 62.2031 32.8779 59.5671V52.2366C34.3788 51.3169 35.3727 49.7328 35.3727 47.9352V44.9399C35.3727 43.1019 35.937 41.3111 36.9635 39.767C37.9834 41.3024 38.5439 43.0931 38.5439 44.9396V47.9352C38.5439 49.7328 39.5378 51.3169 41.0385 52.2366V59.5671C41.0385 62.2029 43.3359 64.3473 46.1595 64.3473H55.2691C58.0927 64.3473 60.3899 62.2031 60.3899 59.5671V52.2368C61.8908 51.3171 62.8847 49.7328 62.8847 47.9352V44.9399C62.8847 42.1876 64.1437 39.5379 66.3391 37.6701C71.155 33.5732 73.9167 27.7377 73.9167 21.6595C73.9167 15.817 71.4622 10.3399 67.0055 6.2371Z" fill="#00264E"/>
<path fill-rule="evenodd" clip-rule="evenodd" d="M60.1728 10.6984C59.6638 10.2932 58.943 10.4045 58.5628 10.9473C58.1829 11.4903 58.2872 12.2589 58.7964 12.6643C61.2502 14.6185 62.6576 17.6099 62.6576 20.8714C62.6576 24.1294 61.182 27.2227 58.7105 29.146C58.1975 29.5452 58.085 30.3127 58.4593 30.86C58.6846 31.1893 59.0345 31.3637 59.3894 31.3637C59.6245 31.3637 59.862 31.2871 60.0664 31.1279C63.1294 28.7446 64.958 24.9101 64.958 20.8714C64.9582 16.8878 63.1693 13.0846 60.1728 10.6984Z" fill="#00264E"/>
<path fill-rule="evenodd" clip-rule="evenodd" d="M17.2737 31.0506C13.8937 29.0084 11.8761 25.6038 11.8761 21.9435C11.8761 18.2975 13.8812 14.9007 17.2403 12.8565C17.9076 12.4503 18.0831 11.6339 17.6322 11.0329C17.1816 10.4318 16.275 10.2737 15.608 10.6799C11.445 13.2131 8.95996 17.4238 8.95996 21.9435C8.95996 26.4811 11.4605 30.701 15.6492 33.232C15.8987 33.3827 16.1809 33.4546 16.4601 33.4546C16.9301 33.4546 17.3912 33.2505 17.6724 32.8728C18.1208 32.2706 17.9422 31.4546 17.2737 31.0506Z" fill="#00264E"/>
</svg>
