<svg width="105" height="105" viewBox="0 0 105 105" fill="none" xmlns="http://www.w3.org/2000/svg">
<path d="M52.6144 0.175781C23.7792 0.175781 0.404297 23.5507 0.404297 52.3859C0.404297 81.2211 23.7792 104.596 52.6144 104.596C81.4496 104.596 104.825 81.2211 104.825 52.3859C104.825 23.5507 81.4496 0.175781 52.6144 0.175781ZM39.8338 74.0259H29.2613V40.0023H39.8338V74.0259ZM34.4823 35.8255C31.143 35.8255 28.9839 33.4597 28.9839 30.5338C28.9839 27.548 31.2083 25.253 34.6182 25.253C38.0282 25.253 40.1166 27.548 40.1819 30.5338C40.1819 33.4597 38.0282 35.8255 34.4823 35.8255ZM78.4476 74.0259H67.875V55.1704C67.875 50.7815 66.3413 47.8012 62.518 47.8012C59.5975 47.8012 57.8626 49.8189 57.0958 51.7605C56.813 52.4512 56.7423 53.4301 56.7423 54.4036V74.0205H46.1643V50.8522C46.1643 46.6047 46.0283 43.0533 45.8869 39.9969H55.0726L55.5567 44.723H55.7688C57.1611 42.504 60.571 39.23 66.2761 39.23C73.232 39.23 78.4476 43.8909 78.4476 53.9087V74.0259Z" fill="#151E36"/>
</svg>
