<svg width="144" height="22" viewBox="0 0 144 22" fill="none" xmlns="http://www.w3.org/2000/svg">
<path d="M1.84459 21.8141H0L3.99181 16.3932L0.634079 11.8018H2.50749L4.94293 15.1202L7.37837 11.8018H9.22296L5.85082 16.3645L9.85704 21.8141H7.96922L4.91411 17.6518L1.84459 21.8141Z" fill="white"/>
<path d="M20.9067 22C19.3984 22 18.1302 21.5137 17.1022 20.5411C16.0935 19.5589 15.5891 18.3146 15.5891 16.8079C15.5891 15.3013 16.0935 14.0617 17.1022 13.0891C18.1014 12.107 19.3695 11.6159 20.9067 11.6159C21.9347 11.6159 22.8474 11.84 23.6448 12.2881V13.8758C22.8281 13.3513 21.9203 13.0891 20.9211 13.0891C19.8643 13.0891 18.9804 13.4419 18.2695 14.1476C17.5682 14.8436 17.2175 15.7304 17.2175 16.8079C17.2175 17.8855 17.573 18.777 18.2839 19.4826C18.9948 20.1787 19.8931 20.5268 20.9787 20.5268C22.1316 20.5268 23.0923 20.2216 23.8609 19.6114V21.199C23.0155 21.733 22.0307 22 20.9067 22Z" fill="white"/>
<path d="M38.3524 21.8141H30.9884V11.8018H38.1651V13.2465H32.5736V15.7495H37.1275V17.1941H32.5736V20.3694H38.3524V21.8141Z" fill="white"/>
<path d="M52.3688 21.8141H45.4083V11.8018H47.0079V20.3694H52.3688V21.8141Z" fill="white"/>
<path d="M66.6011 21.8141H59.2371V11.8018H66.4138V13.2465H60.8223V15.7495H65.3762V17.1941H60.8223V20.3694H66.6011V21.8141Z" fill="white"/>
<path d="M75.2422 21.8141H73.657V11.8018H78.2541C79.2917 11.8018 80.1035 12.0641 80.6895 12.5885C81.2852 13.1225 81.583 13.809 81.583 14.6482C81.583 15.3443 81.3861 15.9402 80.9922 16.4361C80.6079 16.9224 80.0747 17.2466 79.3926 17.4087L82.5629 21.8141H80.6463L77.6056 17.5803H75.2422V21.8141ZM75.2422 13.2465V16.1929H78.1532C78.7297 16.1929 79.1764 16.0642 79.4934 15.8067C79.8201 15.5493 79.9834 15.1822 79.9834 14.7054C79.9834 14.2477 79.8201 13.8901 79.4934 13.6326C79.1764 13.3752 78.7297 13.2465 78.1532 13.2465H75.2422Z" fill="white"/>
<path d="M90.1632 21.8141H88.4771L92.8869 11.7446H94.4144L98.8242 21.8141H97.1237L96.0285 19.3253H91.244L90.1632 21.8141ZM93.6362 13.7328L91.7916 17.9379H95.4808L93.6362 13.7328Z" fill="white"/>
<path d="M103.365 13.2465V11.8018H111.623V13.2465H108.279V21.8141H106.694V13.2465H103.365Z" fill="white"/>
<path d="M120.094 19.4683C120.776 20.174 121.612 20.5268 122.602 20.5268C123.591 20.5268 124.427 20.174 125.109 19.4683C125.791 18.7436 126.132 17.8568 126.132 16.8079C126.132 15.7495 125.791 14.8675 125.109 14.1619C124.427 13.4467 123.591 13.0891 122.602 13.0891C121.612 13.0891 120.776 13.4467 120.094 14.1619C119.422 14.8579 119.086 15.74 119.086 16.8079C119.086 17.8759 119.422 18.7627 120.094 19.4683ZM126.291 20.5125C125.311 21.5042 124.081 22 122.602 22C121.122 22 119.893 21.5042 118.913 20.5125C117.942 19.5017 117.457 18.2669 117.457 16.8079C117.457 15.3395 117.942 14.1094 118.913 13.1177C119.893 12.1165 121.122 11.6159 122.602 11.6159C124.081 11.6159 125.311 12.1165 126.291 13.1177C127.271 14.1094 127.761 15.3395 127.761 16.8079C127.761 18.2764 127.271 19.5112 126.291 20.5125Z" fill="white"/>
<path d="M136.679 21.8141H135.094V11.8018H139.691C140.729 11.8018 141.541 12.0641 142.127 12.5885C142.722 13.1225 143.02 13.809 143.02 14.6482C143.02 15.3443 142.823 15.9402 142.429 16.4361C142.045 16.9224 141.512 17.2466 140.83 17.4087L144 21.8141H142.083L139.043 17.5803H136.679V21.8141ZM136.679 13.2465V16.1929H139.59C140.167 16.1929 140.613 16.0642 140.93 15.8067C141.257 15.5493 141.42 15.1822 141.42 14.7054C141.42 14.2477 141.257 13.8901 140.93 13.6326C140.613 13.3752 140.167 13.2465 139.59 13.2465H136.679Z" fill="white"/>
<path d="M2.94616 6.93876H0.372953V0.530934H2.94616C3.99143 0.530934 4.84916 0.829965 5.51937 1.42803C6.18342 2.02609 6.51545 2.79503 6.51545 3.73485C6.51545 4.68686 6.18342 5.45886 5.51937 6.05082C4.86146 6.64278 4.00373 6.93876 2.94616 6.93876ZM2.03309 1.97727V5.49242H2.82626C3.45342 5.49242 3.93917 5.33985 4.28349 5.03472C4.62781 4.72958 4.79997 4.29629 4.79997 3.73485C4.79997 3.1734 4.62781 2.74011 4.28349 2.43497C3.93917 2.12984 3.45342 1.97727 2.82626 1.97727H2.03309Z" fill="white"/>
<path d="M9.70356 7.05776C9.19937 7.05776 8.78742 6.91435 8.46769 6.62752C8.15411 6.3468 7.99732 5.97453 7.99732 5.51073C8.00346 5.01641 8.191 4.64109 8.55992 4.38478C8.92883 4.12237 9.35002 3.99726 9.82346 4.00947C10.2846 4.00947 10.6812 4.0888 11.0132 4.24747V4.18339C11.0132 3.84775 10.8841 3.6372 10.6259 3.55176C10.423 3.47853 10.1893 3.44192 9.92491 3.44192C9.42687 3.44192 8.97188 3.55482 8.55992 3.78062V2.5082C9.03951 2.28241 9.62671 2.16951 10.3215 2.16951C11.004 2.16951 11.5605 2.34038 11.9909 2.68213C12.4151 3.01778 12.6272 3.47243 12.6272 4.04608V5.4558C12.6272 5.62058 12.7195 5.70296 12.9039 5.70296C13.0146 5.70296 13.1038 5.68465 13.1714 5.64804V6.80145C12.9623 6.96012 12.6857 7.03945 12.3413 7.03945C11.788 7.03945 11.4067 6.86247 11.1977 6.50852C10.8226 6.87468 10.3246 7.05776 9.70356 7.05776ZM10.2569 5.96843C10.5828 5.96843 10.8349 5.83417 11.0132 5.56565V5.08049C10.8349 4.94623 10.6074 4.8791 10.3307 4.8791C10.1217 4.8791 9.94643 4.93097 9.80502 5.03472C9.66975 5.13846 9.60211 5.27272 9.60211 5.4375C9.60211 5.59617 9.6636 5.72432 9.78657 5.82197C9.90954 5.91961 10.0663 5.96843 10.2569 5.96843Z" fill="white"/>
<path d="M16.8679 7.05776C16.376 7.05776 15.9825 6.92655 15.6874 6.66414C15.3923 6.39562 15.2447 6.0203 15.2447 5.53819V3.58838H14.4238V2.28851H15.2447V1.09848H16.8772V2.28851H18.0669V3.58838H16.8772V5.0988C16.8772 5.30019 16.9171 5.4436 16.9971 5.52904C17.0831 5.61447 17.2246 5.65719 17.4213 5.65719C17.6427 5.65719 17.8579 5.60227 18.0669 5.49242V6.78314C17.7718 6.96622 17.3721 7.05776 16.8679 7.05776Z" fill="white"/>
<path d="M21.3339 7.05776C20.8297 7.05776 20.4177 6.91435 20.098 6.62752C19.7844 6.3468 19.6276 5.97453 19.6276 5.51073C19.6338 5.01641 19.8213 4.64109 20.1902 4.38478C20.5591 4.12237 20.9803 3.99726 21.4538 4.00947C21.9149 4.00947 22.3115 4.0888 22.6435 4.24747V4.18339C22.6435 3.84775 22.5144 3.6372 22.2562 3.55176C22.0533 3.47853 21.8196 3.44192 21.5552 3.44192C21.0572 3.44192 20.6022 3.55482 20.1902 3.78062V2.5082C20.6698 2.28241 21.257 2.16951 21.9518 2.16951C22.6343 2.16951 23.1908 2.34038 23.6212 2.68213C24.0454 3.01778 24.2575 3.47243 24.2575 4.04608V5.4558C24.2575 5.62058 24.3498 5.70296 24.5342 5.70296C24.6449 5.70296 24.7341 5.68465 24.8017 5.64804V6.80145C24.5926 6.96012 24.316 7.03945 23.9716 7.03945C23.4182 7.03945 23.037 6.86247 22.828 6.50852C22.4529 6.87468 21.9549 7.05776 21.3339 7.05776ZM21.8872 5.96843C22.2131 5.96843 22.4652 5.83417 22.6435 5.56565V5.08049C22.4652 4.94623 22.2377 4.8791 21.961 4.8791C21.752 4.8791 21.5767 4.93097 21.4353 5.03472C21.3 5.13846 21.2324 5.27272 21.2324 5.4375C21.2324 5.59617 21.2939 5.72432 21.4169 5.82197C21.5398 5.91961 21.6966 5.96843 21.8872 5.96843Z" fill="white"/>
<path d="M32.3302 7.06691C31.3341 7.06691 30.501 6.83806 29.8308 6.38036V4.69602C30.089 4.93402 30.458 5.14152 30.9376 5.31849C31.3987 5.48937 31.8414 5.57481 32.2657 5.57481C32.9236 5.57481 33.2525 5.40698 33.2525 5.07133C33.2525 4.93708 33.1695 4.81197 33.0035 4.69602C32.9666 4.66551 32.8283 4.61058 32.5885 4.53125L32.0074 4.35732L31.537 4.22001L31.1128 4.05524C30.9222 3.982 30.7808 3.91487 30.6885 3.85385C30.3565 3.60974 30.1475 3.41445 30.0614 3.26799C29.9077 2.97506 29.8308 2.66077 29.8308 2.32512C29.8308 1.71486 30.0552 1.2419 30.5041 0.906249C30.9591 0.570601 31.5801 0.402777 32.3671 0.402777C33.1541 0.402777 33.8828 0.579755 34.553 0.933711V2.51736C34.264 2.34038 33.9227 2.19392 33.5292 2.07797C33.1234 1.95591 32.7422 1.89488 32.3856 1.89488C31.8199 1.89488 31.537 2.03525 31.537 2.31597C31.537 2.43802 31.6262 2.53567 31.8045 2.6089L32.0997 2.70959C32.1673 2.734 32.3118 2.77672 32.5331 2.83775C32.7545 2.89878 32.9051 2.9415 32.9851 2.96591C33.5999 3.1673 34.0857 3.42056 34.4423 3.72569C34.7928 4.02472 34.968 4.45191 34.968 5.00726C34.968 5.62973 34.722 6.13015 34.2302 6.50852C33.7444 6.88078 33.1111 7.06691 32.3302 7.06691Z" fill="white"/>
<path d="M39.1528 7.05776C38.4642 7.05776 37.8616 6.83806 37.3451 6.39867C36.8348 5.95928 36.5796 5.36121 36.5796 4.60448C36.5796 3.84164 36.8379 3.24663 37.3544 2.81944C37.877 2.38615 38.4826 2.16951 39.1713 2.16951C39.6939 2.16951 40.1551 2.2641 40.5547 2.45328V3.80808C40.1674 3.64941 39.7923 3.57007 39.4295 3.57007C39.0729 3.57007 38.7747 3.66466 38.5349 3.85385C38.3013 4.04303 38.1844 4.29629 38.1844 4.61363C38.1844 4.93097 38.3013 5.18728 38.5349 5.38257C38.7686 5.57175 39.0637 5.66635 39.4203 5.66635C39.8692 5.66635 40.2688 5.57481 40.6193 5.39173V6.73737C40.1581 6.95096 39.6693 7.05776 39.1528 7.05776Z" fill="white"/>
<path d="M44.3054 6.93876H42.673V2.28851H44.3054V6.93876ZM43.4846 1.86742C43.2264 1.86742 43.005 1.77893 42.8205 1.60196C42.6422 1.41887 42.5531 1.19613 42.5531 0.933711C42.5531 0.671295 42.6422 0.451599 42.8205 0.274621C43.005 0.0915402 43.2264 0 43.4846 0C43.749 0 43.9703 0.0915402 44.1487 0.274621C44.3331 0.451599 44.4253 0.671295 44.4253 0.933711C44.4253 1.19613 44.3331 1.41887 44.1487 1.60196C43.9703 1.77893 43.749 1.86742 43.4846 1.86742Z" fill="white"/>
<path d="M48.8115 7.05776C48.086 7.05776 47.468 6.83806 46.9577 6.39867C46.4535 5.95317 46.2014 5.35816 46.2014 4.61363C46.2014 3.92403 46.4289 3.34427 46.8839 2.87437C47.3389 2.40446 47.9384 2.16951 48.6824 2.16951C49.3526 2.16951 49.8937 2.39836 50.3056 2.85606C50.7299 3.30155 50.942 3.88436 50.942 4.60448V5.00726H47.8062C47.8738 5.23916 48.0306 5.41919 48.2766 5.54734C48.5225 5.6694 48.8207 5.73042 49.1712 5.73042C49.6815 5.73042 50.1827 5.59617 50.6745 5.32765V6.5726C50.2257 6.89604 49.6047 7.05776 48.8115 7.05776ZM47.797 4.14678H49.3464C49.3403 3.91487 49.2665 3.72569 49.1251 3.57923C48.9837 3.43276 48.8115 3.35953 48.6086 3.35953C48.3934 3.35953 48.212 3.42971 48.0645 3.57007C47.9169 3.71043 47.8277 3.90267 47.797 4.14678Z" fill="white"/>
<path d="M54.4575 4.02777V6.93876H52.8251V2.28851H54.4575V2.81029C54.8634 2.3831 55.3368 2.16951 55.8779 2.16951C56.3944 2.16951 56.8002 2.34343 57.0953 2.69129C57.3966 3.03304 57.5472 3.49684 57.5472 4.0827V6.93876H55.9148V4.38478C55.9148 4.12237 55.8533 3.93013 55.7303 3.80808C55.6073 3.67992 55.4444 3.61584 55.2415 3.61584C54.9218 3.61584 54.6604 3.75315 54.4575 4.02777Z" fill="white"/>
<path d="M61.882 7.05776C61.1934 7.05776 60.5908 6.83806 60.0743 6.39867C59.564 5.95928 59.3088 5.36121 59.3088 4.60448C59.3088 3.84164 59.5671 3.24663 60.0836 2.81944C60.6062 2.38615 61.2118 2.16951 61.9005 2.16951C62.4231 2.16951 62.8843 2.2641 63.2839 2.45328V3.80808C62.8966 3.64941 62.5215 3.57007 62.1587 3.57007C61.8021 3.57007 61.5039 3.66466 61.2641 3.85385C61.0304 4.04303 60.9136 4.29629 60.9136 4.61363C60.9136 4.93097 61.0304 5.18728 61.2641 5.38257C61.4977 5.57175 61.7929 5.66635 62.1495 5.66635C62.5983 5.66635 62.998 5.57481 63.3485 5.39173V6.73737C62.8873 6.95096 62.3985 7.05776 61.882 7.05776Z" fill="white"/>
<path d="M67.581 7.05776C66.8554 7.05776 66.2375 6.83806 65.7271 6.39867C65.223 5.95317 64.9709 5.35816 64.9709 4.61363C64.9709 3.92403 65.1984 3.34427 65.6534 2.87437C66.1084 2.40446 66.7078 2.16951 67.4518 2.16951C68.122 2.16951 68.6631 2.39836 69.0751 2.85606C69.4993 3.30155 69.7115 3.88436 69.7115 4.60448V5.00726H66.5757C66.6433 5.23916 66.8001 5.41919 67.046 5.54734C67.292 5.6694 67.5902 5.73042 67.9407 5.73042C68.451 5.73042 68.9521 5.59617 69.444 5.32765V6.5726C68.9951 6.89604 68.3741 7.05776 67.581 7.05776ZM66.5664 4.14678H68.1159C68.1097 3.91487 68.036 3.72569 67.8945 3.57923C67.7531 3.43276 67.581 3.35953 67.3781 3.35953C67.1628 3.35953 66.9815 3.42971 66.8339 3.57007C66.6863 3.71043 66.5972 3.90267 66.5664 4.14678Z" fill="white"/>
</svg>
