<svg width="514" height="109" viewBox="0 0 514 109" fill="none" xmlns="http://www.w3.org/2000/svg">
<path d="M6.5835 74.4833H0.771484L13.349 57.2704L2.76936 42.6917H8.67219L16.3459 53.2283L24.0195 42.6917H29.8316L19.2065 57.1796L31.8294 74.4833H25.8812L16.2551 61.2671L6.5835 74.4833ZM66.645 75.0738C61.8926 75.0738 57.8969 73.5296 54.6578 70.4413C51.4793 67.3226 49.8901 63.3713 49.8901 58.5875C49.8901 53.8037 51.4793 49.8675 54.6578 46.7792C57.8061 43.6605 61.8018 42.1013 66.645 42.1013C69.8841 42.1013 72.7598 42.8128 75.2722 44.2358V49.2771C72.6993 47.6118 69.8387 46.7792 66.6904 46.7792C63.3607 46.7792 60.5758 47.8995 58.3357 50.14C56.126 52.3503 55.021 55.1662 55.021 58.5875C55.021 62.0088 56.1411 64.8399 58.3811 67.0804C60.6212 69.2908 63.4515 70.3958 66.8721 70.3958C70.5046 70.3958 73.5317 69.427 75.9533 67.4892V72.5304C73.2896 74.2259 70.1867 75.0738 66.645 75.0738ZM121.614 74.4833H98.4111V42.6917H121.023V47.2788H103.406V55.2267H117.754V59.8138H103.406V69.8963H121.614V74.4833ZM165.777 74.4833H143.846V42.6917H148.886V69.8963H165.777V74.4833ZM210.622 74.4833H187.419V42.6917H210.031V47.2788H192.414V55.2267H206.762V59.8138H192.414V69.8963H210.622V74.4833ZM237.847 74.4833H232.852V42.6917H247.337C250.606 42.6917 253.165 43.5243 255.011 45.1896C256.889 46.8851 257.826 49.0651 257.826 51.7296C257.826 53.9399 257.207 55.8322 255.964 57.4067C254.755 58.9508 253.075 59.9803 250.924 60.495L260.914 74.4833H254.875L245.294 61.04H237.847V74.4833ZM237.847 47.2788V56.6346H247.019C248.836 56.6346 250.243 56.2258 251.242 55.4083C252.272 54.5908 252.786 53.4251 252.786 51.9113C252.786 50.4579 252.272 49.3225 251.242 48.505C250.243 47.6875 248.836 47.2788 247.019 47.2788H237.847ZM284.861 74.4833H279.548L293.443 42.51H298.256L312.15 74.4833H306.792L303.341 66.5808H288.266L284.861 74.4833ZM295.804 48.8229L289.992 62.1754H301.616L295.804 48.8229ZM326.459 47.2788V42.6917H352.476V47.2788H341.942V74.4833H336.947V47.2788H326.459ZM379.17 67.035C381.319 69.2755 383.952 70.3958 387.071 70.3958C390.187 70.3958 392.821 69.2755 394.971 67.035C397.12 64.7338 398.195 61.918 398.195 58.5875C398.195 55.2267 397.12 52.4259 394.971 50.1854C392.821 47.9146 390.187 46.7792 387.071 46.7792C383.952 46.7792 381.319 47.9146 379.17 50.1854C377.05 52.3958 375.991 55.1963 375.991 58.5875C375.991 61.9787 377.05 64.7945 379.17 67.035ZM398.695 70.3504C395.607 73.4993 391.731 75.0738 387.071 75.0738C382.408 75.0738 378.534 73.4993 375.447 70.3504C372.388 67.1409 370.861 63.22 370.861 58.5875C370.861 53.9247 372.388 50.0188 375.447 46.87C378.534 43.6908 382.408 42.1013 387.071 42.1013C391.731 42.1013 395.607 43.6908 398.695 46.87C401.782 50.0188 403.326 53.9247 403.326 58.5875C403.326 63.2503 401.782 67.1713 398.695 70.3504ZM431.425 74.4833H426.431V42.6917H440.915C444.185 42.6917 446.744 43.5243 448.589 45.1896C450.467 46.8851 451.404 49.0651 451.404 51.7296C451.404 53.9399 450.785 55.8322 449.543 57.4067C448.333 58.9508 446.653 59.9803 444.502 60.495L454.492 74.4833H448.453L438.872 61.04H431.425V74.4833ZM431.425 47.2788V56.6346H440.597C442.414 56.6346 443.821 56.2258 444.82 55.4083C445.85 54.5908 446.364 53.4251 446.364 51.9113C446.364 50.4579 445.85 49.3225 444.82 48.505C443.821 47.6875 442.414 47.2788 440.597 47.2788H431.425Z" fill="#151E36"/>
<path d="M3.42814 103.55H2.38379V87.6542H8.99041C10.5191 87.6542 11.7148 88.0402 12.5775 88.8123C13.4554 89.5844 13.8943 90.6213 13.8943 91.9233C13.8943 93.2254 13.4554 94.2699 12.5775 95.0571C11.7148 95.8292 10.5191 96.2152 8.99041 96.2152H3.42814V103.55ZM3.42814 88.6306V95.2388H8.8996C10.1559 95.2388 11.1245 94.9512 11.8056 94.3759C12.5018 93.8005 12.85 92.983 12.85 91.9233C12.85 90.8788 12.5018 90.0689 11.8056 89.4936C11.1245 88.9182 10.1559 88.6306 8.8996 88.6306H3.42814ZM19.6329 101.529C20.5561 102.422 21.6762 102.869 22.993 102.869C24.3249 102.869 25.4373 102.422 26.3304 101.529C27.2385 100.621 27.6926 99.4929 27.6926 98.1454C27.6926 96.798 27.2385 95.6702 26.3304 94.7619C25.4373 93.8536 24.3249 93.3994 22.993 93.3994C21.661 93.3994 20.5411 93.8536 19.6329 94.7619C18.7399 95.6853 18.2935 96.8133 18.2935 98.1454C18.2935 99.4776 18.7399 100.606 19.6329 101.529ZM27.125 102.165C26.0654 103.27 24.6881 103.823 22.993 103.823C21.2826 103.823 19.8977 103.27 18.8383 102.165C17.7788 101.06 17.2491 99.7199 17.2491 98.1454C17.2491 96.5709 17.7788 95.2311 18.8383 94.1261C19.9128 93.0057 21.2977 92.4456 22.993 92.4456C24.673 92.4456 26.0503 93.0057 27.125 94.1261C28.1995 95.2464 28.7369 96.5862 28.7369 98.1454C28.7369 99.7047 28.1995 101.044 27.125 102.165ZM37.2379 103.641H36.3298L32.3567 92.7181H33.4238L36.8292 102.051L40.1439 92.6727H41.0293L44.3667 102.051L47.7495 92.7181H48.7938L44.8208 103.641H43.9353L40.5526 94.2623L37.2379 103.641ZM58.3453 103.823C56.6351 103.823 55.2275 103.293 54.1225 102.233C53.0026 101.158 52.4425 99.7955 52.4425 98.1454C52.4425 96.5104 52.942 95.1556 53.9409 94.0806C54.9398 92.9906 56.2339 92.4456 57.8231 92.4456C58.7162 92.4456 59.5032 92.6273 60.1843 92.9906C60.8654 93.3389 61.3875 93.8158 61.7508 94.4213C62.4622 95.5567 62.8178 96.7299 62.8178 97.9411V98.2817H53.4641C53.4945 99.6593 53.9712 100.765 54.8944 101.597C55.8329 102.445 57.0285 102.869 58.4815 102.869C59.7832 102.869 60.9487 102.528 61.9778 101.847V102.846C61.1304 103.497 59.9195 103.823 58.3453 103.823ZM53.4868 97.3961H61.7962C61.7962 96.9722 61.7206 96.5408 61.5692 96.1017C61.4179 95.6626 61.1908 95.2388 60.8881 94.83C60.6006 94.4062 60.1843 94.0656 59.6394 93.8081C59.0945 93.5356 58.4815 93.3994 57.8004 93.3994C56.5291 93.3994 55.5074 93.8081 54.7355 94.6256C53.9636 95.4431 53.5475 96.3666 53.4868 97.3961ZM68.7294 103.55H67.7077V92.7181H68.7294V94.989C69.138 94.2623 69.736 93.6643 70.5229 93.195C71.3252 92.7105 72.1879 92.4607 73.1111 92.4456V93.4902C72.0818 93.4902 71.1813 93.7854 70.4094 94.3759C69.6375 94.9512 69.0776 95.6172 68.7294 96.3742V103.55ZM82.2316 103.823C80.5212 103.823 79.1136 103.293 78.0088 102.233C76.8887 101.158 76.3288 99.7955 76.3288 98.1454C76.3288 96.5104 76.8282 95.1556 77.8272 94.0806C78.8261 92.9906 80.1202 92.4456 81.7094 92.4456C82.6025 92.4456 83.3895 92.6273 84.0706 92.9906C84.7516 93.3389 85.2738 93.8158 85.6371 94.4213C86.3485 95.5567 86.7041 96.7299 86.7041 97.9411V98.2817H77.3504C77.3807 99.6593 77.8575 100.765 78.7807 101.597C79.7192 102.445 80.9148 102.869 82.3678 102.869C83.6695 102.869 84.8348 102.528 85.8641 101.847V102.846C85.0165 103.497 83.8057 103.823 82.2316 103.823ZM77.3731 97.3961H85.6825C85.6825 96.9722 85.6067 96.5408 85.4555 96.1017C85.3042 95.6626 85.0771 95.2388 84.7744 94.83C84.4868 94.4062 84.0706 94.0656 83.5257 93.8081C82.9808 93.5356 82.3678 93.3994 81.6867 93.3994C80.4153 93.3994 79.3937 93.8081 78.6218 94.6256C77.8499 95.4431 77.4336 96.3666 77.3731 97.3961ZM96.3163 103.823C94.6664 103.823 93.3345 103.27 92.3205 102.165C91.3063 101.06 90.7994 99.7199 90.7994 98.1454C90.7994 96.5709 91.3063 95.2311 92.3205 94.1261C93.3496 93.0057 94.6817 92.4456 96.3163 92.4456C98.2384 92.4456 99.7292 93.1799 100.789 94.6483V87.6542H101.81V103.55H100.789V101.643C99.7141 103.096 98.2234 103.823 96.3163 103.823ZM96.4979 102.869C97.4362 102.869 98.2989 102.619 99.0861 102.119C99.8731 101.62 100.441 100.976 100.789 100.189V96.1017C100.426 95.3145 99.8427 94.6711 99.0407 94.1715C98.2535 93.6568 97.406 93.3994 96.4979 93.3994C95.1659 93.3994 94.0534 93.8536 93.1606 94.7619C92.2826 95.6551 91.8438 96.7829 91.8438 98.1454C91.8438 99.5079 92.2826 100.636 93.1606 101.529C94.0534 102.422 95.1659 102.869 96.4979 102.869ZM120.664 103.823C118.757 103.823 117.266 103.096 116.191 101.643V103.55H115.17V87.6542H116.191V94.6483C117.251 93.1799 118.742 92.4456 120.664 92.4456C122.283 92.4456 123.608 93.0057 124.637 94.1261C125.666 95.2464 126.181 96.5862 126.181 98.1454C126.181 99.7047 125.666 101.044 124.637 102.165C123.623 103.27 122.299 103.823 120.664 103.823ZM120.482 102.869C121.799 102.869 122.904 102.422 123.797 101.529C124.69 100.606 125.136 99.4776 125.136 98.1454C125.136 96.8133 124.69 95.6853 123.797 94.7619C122.919 93.8536 121.814 93.3994 120.482 93.3994C119.574 93.3994 118.719 93.6568 117.917 94.1715C117.13 94.6711 116.555 95.3145 116.191 96.1017V100.189C116.54 100.976 117.107 101.62 117.894 102.119C118.681 102.619 119.544 102.869 120.482 102.869ZM131.309 108.183C130.643 108.183 130.129 108.069 129.765 107.842V106.865C130.204 107.108 130.681 107.229 131.196 107.229C131.937 107.229 132.535 106.934 132.989 106.343C133.458 105.798 134.003 104.814 134.624 103.391L129.606 92.7181H130.764L135.146 102.142L139.391 92.7181H140.504L135.032 104.776C134.518 105.942 133.965 106.797 133.375 107.342C132.8 107.902 132.111 108.183 131.309 108.183ZM152.436 103.55H151.324L158.543 87.5634H159.519L166.694 103.55H165.604L163.492 98.8721H154.547L152.436 103.55ZM159.02 88.9259L154.911 97.9638H163.107L159.02 88.9259ZM172.675 93.6492V103.55H171.653V93.6492H169.405V92.7181H171.653V90.5608C171.653 89.592 171.903 88.8426 172.402 88.3127C172.902 87.7677 173.606 87.4952 174.514 87.4952C175.286 87.4952 175.989 87.6466 176.625 87.9494V88.9259C175.959 88.6079 175.323 88.449 174.718 88.449C174.067 88.449 173.56 88.6534 173.197 89.0621C172.849 89.4709 172.675 90.0462 172.675 90.7879V92.7181H176.625V93.6492H172.675ZM181.916 103.55H180.894V92.7181H181.916V94.989C182.325 94.2623 182.922 93.6643 183.709 93.195C184.511 92.7105 185.374 92.4607 186.297 92.4456V93.4902C185.269 93.4902 184.368 93.7854 183.596 94.3759C182.824 94.9512 182.263 95.6172 181.916 96.3742V103.55ZM191.649 103.55H190.627V92.7181H191.649V103.55ZM191.74 89.4936C191.497 89.751 191.217 89.8266 190.899 89.7206C190.581 89.5995 190.378 89.3951 190.287 89.1075C190.211 88.8199 190.287 88.5398 190.514 88.2673C190.756 88.0099 191.035 87.9418 191.353 88.0629C191.671 88.1688 191.869 88.3658 191.944 88.6534C192.034 88.9409 191.967 89.2211 191.74 89.4936ZM202.545 103.823C200.88 103.823 199.517 103.27 198.458 102.165C197.383 101.044 196.846 99.6972 196.846 98.1227C196.846 96.5635 197.383 95.2237 198.458 94.1033C199.517 92.9983 200.887 92.4456 202.567 92.4456C203.778 92.4456 204.868 92.7258 205.836 93.2858V94.285C204.823 93.6946 203.771 93.3994 202.681 93.3994C201.319 93.3994 200.177 93.8536 199.252 94.7619C198.344 95.6702 197.89 96.798 197.89 98.1454C197.89 99.4929 198.344 100.621 199.252 101.529C200.191 102.422 201.334 102.869 202.681 102.869C203.953 102.869 205.073 102.528 206.041 101.847V102.869C205.088 103.505 203.922 103.823 202.545 103.823ZM214.678 102.869C215.54 102.869 216.35 102.664 217.108 102.256C217.863 101.847 218.477 101.332 218.946 100.711V98.9175C217.644 98.0697 216.319 97.6458 214.974 97.6458C213.838 97.6458 212.938 97.888 212.271 98.3725C211.604 98.8418 211.272 99.4701 211.272 100.257C211.272 101.105 211.59 101.756 212.226 102.21C212.861 102.649 213.679 102.869 214.678 102.869ZM214.383 103.823C213.263 103.823 212.278 103.512 211.432 102.891C210.615 102.256 210.206 101.385 210.206 100.28C210.206 99.2051 210.629 98.3498 211.477 97.714C212.324 97.0631 213.399 96.7375 214.701 96.7375C216.245 96.7375 217.66 97.1312 218.946 97.9184V96.4877C218.946 94.4289 217.66 93.3994 215.086 93.3994C213.784 93.3994 212.558 93.7854 211.408 94.5575V93.5129C212.513 92.8013 213.8 92.4456 215.268 92.4456C216.721 92.4456 217.863 92.7863 218.697 93.4675C219.543 94.1337 219.968 95.1101 219.968 96.3969V101.211C219.968 101.68 220.074 102.059 220.286 102.346C220.497 102.619 220.786 102.755 221.149 102.755C221.39 102.755 221.603 102.71 221.785 102.619V103.459C221.572 103.58 221.276 103.641 220.898 103.641C220.384 103.641 219.952 103.482 219.605 103.164C219.271 102.831 219.082 102.362 219.037 101.756C217.856 103.134 216.305 103.823 214.383 103.823ZM227.115 95.92V103.55H226.095V92.7181H227.115V94.6029C227.631 93.9822 228.296 93.4675 229.113 93.0588C229.93 92.65 230.802 92.4456 231.725 92.4456C233.087 92.4456 234.124 92.8393 234.834 93.6265C235.561 94.3986 235.924 95.5113 235.924 96.9646V103.55H234.903V97.169C234.903 95.6097 234.495 94.5726 233.677 94.0579C233.011 93.6188 232.263 93.3994 231.429 93.3994C230.583 93.3994 229.758 93.6568 228.955 94.1715C228.138 94.6711 227.524 95.2538 227.115 95.92ZM259.675 103.55H249.39V87.6542H250.434V102.574H259.675V103.55ZM269.005 103.823C267.294 103.823 265.887 103.293 264.783 102.233C263.662 101.158 263.103 99.7955 263.103 98.1454C263.103 96.5104 263.602 95.1556 264.601 94.0806C265.6 92.9906 266.893 92.4456 268.482 92.4456C269.376 92.4456 270.162 92.6273 270.843 92.9906C271.525 93.3389 272.048 93.8158 272.411 94.4213C273.123 95.5567 273.477 96.7299 273.477 97.9411V98.2817H264.123C264.154 99.6593 264.632 100.765 265.555 101.597C266.494 102.445 267.689 102.869 269.142 102.869C270.444 102.869 271.608 102.528 272.638 101.847V102.846C271.79 103.497 270.58 103.823 269.005 103.823ZM264.147 97.3961H272.456C272.456 96.9722 272.38 96.5408 272.229 96.1017C272.078 95.6626 271.851 95.2388 271.548 94.83C271.261 94.4062 270.843 94.0656 270.299 93.8081C269.754 93.5356 269.142 93.3994 268.461 93.3994C267.189 93.3994 266.167 93.8081 265.395 94.6256C264.623 95.4431 264.207 96.3666 264.147 97.3961ZM281.91 102.869C282.773 102.869 283.581 102.664 284.338 102.256C285.096 101.847 285.708 101.332 286.178 100.711V98.9175C284.876 98.0697 283.552 97.6458 282.204 97.6458C281.069 97.6458 280.168 97.888 279.503 98.3725C278.837 98.8418 278.504 99.4701 278.504 100.257C278.504 101.105 278.822 101.756 279.458 102.21C280.094 102.649 280.911 102.869 281.91 102.869ZM281.614 103.823C280.493 103.823 279.511 103.512 278.662 102.891C277.845 102.256 277.436 101.385 277.436 100.28C277.436 99.2051 277.86 98.3498 278.708 97.714C279.556 97.0631 280.629 96.7375 281.932 96.7375C283.475 96.7375 284.89 97.1312 286.178 97.9184V96.4877C286.178 94.4289 284.89 93.3994 282.319 93.3994C281.016 93.3994 279.79 93.7854 278.641 94.5575V93.5129C279.745 92.8013 281.031 92.4456 282.5 92.4456C283.953 92.4456 285.096 92.7863 285.927 93.4675C286.776 94.1337 287.199 95.1101 287.199 96.3969V101.211C287.199 101.68 287.304 102.059 287.517 102.346C287.729 102.619 288.016 102.755 288.379 102.755C288.621 102.755 288.833 102.71 289.015 102.619V103.459C288.803 103.58 288.508 103.641 288.131 103.641C287.615 103.641 287.184 103.482 286.836 103.164C286.503 102.831 286.314 102.362 286.269 101.756C285.088 103.134 283.535 103.823 281.614 103.823ZM298.047 103.823C296.398 103.823 295.067 103.27 294.052 102.165C293.038 101.06 292.531 99.7199 292.531 98.1454C292.531 96.5709 293.038 95.2311 294.052 94.1261C295.081 93.0057 296.413 92.4456 298.047 92.4456C299.971 92.4456 301.462 93.1799 302.521 94.6483V87.6542H303.541V103.55H302.521V101.643C301.446 103.096 299.954 103.823 298.047 103.823ZM298.229 102.869C299.168 102.869 300.031 102.619 300.817 102.119C301.605 101.62 302.172 100.976 302.521 100.189V96.1017C302.158 95.3145 301.574 94.6711 300.772 94.1715C299.985 93.6568 299.137 93.3994 298.229 93.3994C296.898 93.3994 295.786 93.8536 294.892 94.7619C294.015 95.6551 293.576 96.7829 293.576 98.1454C293.576 99.5079 294.015 100.636 294.892 101.529C295.786 102.422 296.898 102.869 298.229 102.869ZM314.346 103.823C312.635 103.823 311.228 103.293 310.124 102.233C309.003 101.158 308.444 99.7955 308.444 98.1454C308.444 96.5104 308.943 95.1556 309.942 94.0806C310.941 92.9906 312.234 92.4456 313.823 92.4456C314.717 92.4456 315.503 92.6273 316.184 92.9906C316.866 93.3389 317.389 93.8158 317.752 94.4213C318.462 95.5567 318.818 96.7299 318.818 97.9411V98.2817H309.464C309.495 99.6593 309.971 100.765 310.895 101.597C311.833 102.445 313.03 102.869 314.483 102.869C315.783 102.869 316.949 102.528 317.979 101.847V102.846C317.131 103.497 315.919 103.823 314.346 103.823ZM309.488 97.3961H317.797C317.797 96.9722 317.721 96.5408 317.57 96.1017C317.418 95.6626 317.191 95.2388 316.889 94.83C316.6 94.4062 316.184 94.0656 315.64 93.8081C315.095 93.5356 314.483 93.3994 313.801 93.3994C312.53 93.3994 311.508 93.8081 310.736 94.6256C309.964 95.4431 309.548 96.3666 309.488 97.3961ZM324.73 103.55H323.709V92.7181H324.73V94.989C325.139 94.2623 325.736 93.6643 326.524 93.195C327.325 92.7105 328.188 92.4607 329.113 92.4456V93.4902C328.083 93.4902 327.182 93.7854 326.41 94.3759C325.638 94.9512 325.079 95.6172 324.73 96.3742V103.55ZM336.621 103.823C335.742 103.823 334.886 103.717 334.055 103.505C333.237 103.278 332.602 102.997 332.147 102.664V101.552C333.433 102.43 334.917 102.869 336.597 102.869C337.656 102.869 338.497 102.679 339.118 102.301C339.754 101.907 340.072 101.385 340.072 100.734C340.072 100.129 339.738 99.6518 339.073 99.3036C338.693 99.1068 337.945 98.857 336.824 98.5542L336.37 98.4406C335.357 98.1681 334.614 97.926 334.145 97.714C333.041 97.1539 332.489 96.3742 332.489 95.375C332.489 94.4667 332.852 93.7551 333.579 93.2404C334.32 92.7105 335.35 92.4456 336.666 92.4456C338.239 92.4456 339.541 92.7786 340.571 93.4448V94.4894C339.374 93.7627 338.096 93.3994 336.734 93.3994C335.704 93.3994 334.91 93.5811 334.351 93.9444C333.806 94.2926 333.533 94.7695 333.533 95.375C333.533 95.8746 333.751 96.2984 334.191 96.6467C334.358 96.7679 334.614 96.8965 334.963 97.0327C335.477 97.2295 336.098 97.4111 336.824 97.5777L338.096 97.8956C338.292 97.9411 338.664 98.0697 339.209 98.2817C339.692 98.4633 340.034 98.6526 340.23 98.8494C340.82 99.349 341.116 99.9848 341.116 100.757C341.116 101.68 340.684 102.43 339.821 103.005C338.989 103.55 337.921 103.823 336.621 103.823ZM347.086 95.92V103.55H346.065V87.6542H347.086V94.6029C347.6 93.9822 348.267 93.4675 349.084 93.0588C349.901 92.65 350.771 92.4456 351.696 92.4456C353.058 92.4456 354.093 92.8393 354.805 93.6265C355.532 94.3986 355.895 95.5113 355.895 96.9646V103.55H354.874V97.169C354.874 95.6097 354.466 94.5726 353.648 94.0579C352.982 93.6188 352.232 93.3994 351.4 93.3994C350.552 93.3994 349.727 93.6568 348.926 94.1715C348.109 94.6711 347.495 95.2538 347.086 95.92ZM362.695 103.55H361.674V92.7181H362.695V103.55ZM362.786 89.4936C362.544 89.751 362.265 89.8266 361.947 89.7206C361.629 89.5995 361.424 89.3951 361.333 89.1075C361.257 88.8199 361.333 88.5398 361.56 88.2673C361.801 88.0099 362.083 87.9418 362.401 88.0629C362.719 88.1688 362.915 88.3658 362.991 88.6534C363.082 88.9409 363.013 89.2211 362.786 89.4936ZM374.181 92.4456C375.801 92.4456 377.125 93.0057 378.155 94.1261C379.183 95.2464 379.699 96.5786 379.699 98.1227C379.699 99.682 379.183 101.022 378.155 102.142C377.125 103.262 375.801 103.823 374.181 103.823C372.259 103.823 370.768 103.088 369.709 101.62V108.092H368.687V92.7181H369.709V94.6256C370.783 93.1723 372.274 92.4456 374.181 92.4456ZM373.999 93.3994C373.06 93.3994 372.198 93.6492 371.411 94.1488C370.625 94.6484 370.056 95.2918 369.709 96.079V100.166C370.073 100.954 370.647 101.605 371.435 102.119C372.236 102.619 373.091 102.869 373.999 102.869C375.331 102.869 376.437 102.415 377.314 101.506C378.208 100.583 378.654 99.4549 378.654 98.1227C378.654 96.7753 378.208 95.6551 377.314 94.7619C376.437 93.8536 375.331 93.3994 373.999 93.3994ZM399.868 103.823C397.598 103.823 395.707 103.05 394.193 101.506C392.665 99.9318 391.9 97.9638 391.9 95.6021C391.9 93.2555 392.665 91.2951 394.193 89.7206C395.707 88.1614 397.598 87.3817 399.868 87.3817C401.928 87.3817 403.653 87.9343 405.045 89.0394V90.1521C403.546 88.9713 401.844 88.3809 399.937 88.3809C397.954 88.3809 396.298 89.0697 394.964 90.4473C393.633 91.7947 392.967 93.5206 392.967 95.6248C392.967 97.714 393.633 99.4322 394.964 100.78C396.298 102.142 397.932 102.823 399.868 102.823C402.002 102.823 403.675 102.195 404.887 100.939V94.444H405.931V101.325C404.402 102.99 402.382 103.823 399.868 103.823ZM412.611 103.55H411.589V92.7181H412.611V94.989C413.02 94.2623 413.617 93.6643 414.404 93.195C415.207 92.7105 416.069 92.4607 416.992 92.4456V93.4902C415.964 93.4902 415.063 93.7854 414.291 94.3759C413.519 94.9512 412.958 95.6172 412.611 96.3742V103.55ZM422.593 101.529C423.518 102.422 424.637 102.869 425.953 102.869C427.286 102.869 428.398 102.422 429.292 101.529C430.2 100.621 430.654 99.4929 430.654 98.1454C430.654 96.798 430.2 95.6702 429.292 94.7619C428.398 93.8536 427.286 93.3994 425.953 93.3994C424.622 93.3994 423.501 93.8536 422.593 94.7619C421.702 95.6853 421.255 96.8133 421.255 98.1454C421.255 99.4776 421.702 100.606 422.593 101.529ZM430.085 102.165C429.026 103.27 427.65 103.823 425.953 103.823C424.244 103.823 422.858 103.27 421.8 102.165C420.741 101.06 420.21 99.7199 420.21 98.1454C420.21 96.5709 420.741 95.2311 421.8 94.1261C422.875 93.0057 424.259 92.4456 425.953 92.4456C427.633 92.4456 429.012 93.0057 430.085 94.1261C431.161 95.2464 431.698 96.5862 431.698 98.1454C431.698 99.7047 431.161 101.044 430.085 102.165ZM445.211 100.348V92.7181H446.232V103.55H445.211V101.665C444.697 102.286 444.031 102.801 443.213 103.209C442.396 103.618 441.526 103.823 440.601 103.823C439.239 103.823 438.195 103.436 437.468 102.664C436.758 101.877 436.402 100.757 436.402 99.3036V92.7181H437.423V99.0992C437.423 100.643 437.824 101.68 438.627 102.21C439.323 102.649 440.08 102.869 440.898 102.869C441.729 102.869 442.554 102.619 443.371 102.119C444.189 101.589 444.802 100.999 445.211 100.348ZM457.436 92.4456C459.055 92.4456 460.379 93.0057 461.409 94.1261C462.438 95.2464 462.952 96.5786 462.952 98.1227C462.952 99.682 462.438 101.022 461.409 102.142C460.379 103.262 459.055 103.823 457.436 103.823C455.513 103.823 454.022 103.088 452.963 101.62V108.092H451.942V92.7181H452.963V94.6256C454.038 93.1723 455.529 92.4456 457.436 92.4456ZM457.255 93.3994C456.316 93.3994 455.453 93.6492 454.667 94.1488C453.878 94.6484 453.312 95.2918 452.963 96.079V100.166C453.326 100.954 453.902 101.605 454.688 102.119C455.491 102.619 456.347 102.869 457.255 102.869C458.586 102.869 459.69 102.415 460.569 101.506C461.461 100.583 461.908 99.4549 461.908 98.1227C461.908 96.7753 461.461 95.6551 460.569 94.7619C459.69 93.8536 458.586 93.3994 457.255 93.3994Z" fill="#151E36"/>
<path d="M2.03418 3.27H11.6531C13.881 3.27 15.8571 3.68662 17.5813 4.51987C19.3055 5.35312 20.6423 6.53515 21.5916 8.066C22.541 9.59685 23.0156 11.3893 23.0156 13.4433C23.0156 15.4974 22.541 17.2898 21.5916 18.8207C20.6423 20.3516 19.3055 21.5335 17.5813 22.3668C15.8571 23.2001 13.881 23.6167 11.6531 23.6167H2.03418V3.27ZM11.4206 19.0241C13.1642 19.0241 14.5591 18.53 15.6052 17.5417C16.6708 16.5535 17.2035 15.1873 17.2035 13.4433C17.2035 11.6993 16.6708 10.3332 15.6052 9.34494C14.5591 8.35667 13.1642 7.86254 11.4206 7.86254H7.78807V19.0241H11.4206ZM35.6908 7.60094C38.3062 7.60094 40.3016 8.20165 41.6772 9.40307C43.0527 10.5851 43.7405 12.4066 43.7405 14.8676V23.6167H38.5968V21.582C37.8024 23.1129 36.2526 23.8783 33.9472 23.8783C32.7267 23.8783 31.6707 23.6652 30.7797 23.2388C29.8884 22.8124 29.2104 22.2409 28.7455 21.5239C28.2998 20.7876 28.0771 19.9543 28.0771 19.0241C28.0771 17.5321 28.6485 16.3791 29.7916 15.5652C30.9346 14.732 32.6976 14.3153 35.0806 14.3153H38.2191C38.1221 12.6489 37.0082 11.8156 34.8771 11.8156C34.1216 11.8156 33.3562 11.9416 32.5814 12.1935C31.8064 12.426 31.1476 12.7554 30.6053 13.1817L28.7455 9.43214C29.6173 8.8508 30.6731 8.40512 31.913 8.09507C33.1722 7.76565 34.4314 7.60094 35.6908 7.60094ZM35.4874 20.3903C36.1267 20.3903 36.6885 20.2353 37.1729 19.9252C37.6571 19.6151 38.0058 19.1598 38.2191 18.5591V17.1929H35.8361C34.228 17.1929 33.4241 17.7258 33.4241 18.7916C33.4241 19.2761 33.6081 19.6636 33.9763 19.9543C34.3443 20.2449 34.8481 20.3903 35.4874 20.3903ZM61.2906 22.9772C60.8256 23.2679 60.2542 23.4908 59.576 23.6457C58.9174 23.8007 58.2102 23.8783 57.4546 23.8783C55.4012 23.8783 53.8221 23.3745 52.7178 22.3668C51.6136 21.3591 51.0614 19.8574 51.0614 17.8615V12.5713H48.7657V8.44387H51.0614V4.34547H56.5828V8.44387H60.1863V12.5713H56.5828V17.8033C56.5828 18.3652 56.7281 18.811 57.0187 19.1404C57.3288 19.4505 57.7356 19.6055 58.2393 19.6055C58.8786 19.6055 59.4405 19.4407 59.9247 19.1113L61.2906 22.9772ZM73.3293 7.60094C75.9447 7.60094 77.94 8.20165 79.3156 9.40307C80.6911 10.5851 81.3789 12.4066 81.3789 14.8676V23.6167H76.2353V21.582C75.4408 23.1129 73.891 23.8783 71.5856 23.8783C70.3651 23.8783 69.3092 23.6652 68.4181 23.2388C67.5269 22.8124 66.8489 22.2409 66.3839 21.5239C65.9382 20.7876 65.7155 19.9543 65.7155 19.0241C65.7155 17.5321 66.2869 16.3791 67.4301 15.5652C68.573 14.732 70.3361 14.3153 72.719 14.3153H75.8575C75.7605 12.6489 74.6466 11.8156 72.5156 11.8156C71.76 11.8156 70.9946 11.9416 70.2198 12.1935C69.4448 12.426 68.7861 12.7554 68.2437 13.1817L66.3839 9.43214C67.2557 8.8508 68.3115 8.40512 69.5514 8.09507C70.8106 7.76565 72.0699 7.60094 73.3293 7.60094ZM73.1258 20.3903C73.7652 20.3903 74.3269 20.2353 74.8113 19.9252C75.2955 19.6151 75.6442 19.1598 75.8575 18.5591V17.1929H73.4745C71.8664 17.1929 71.0626 17.7258 71.0626 18.7916C71.0626 19.2761 71.2466 19.6636 71.6147 19.9543C71.9827 20.2449 72.4865 20.3903 73.1258 20.3903ZM107.124 24.0236C105.478 24.0236 103.879 23.8201 102.33 23.4132C100.78 23.0063 99.5204 22.4636 98.5518 21.7855L100.441 17.5417C101.351 18.1425 102.407 18.6268 103.608 18.9951C104.809 19.3633 105.991 19.5473 107.154 19.5473C109.362 19.5473 110.466 18.9951 110.466 17.8905C110.466 17.3092 110.147 16.8829 109.507 16.6116C108.888 16.3209 107.88 16.0206 106.485 15.7105C104.955 15.3811 103.676 15.0323 102.649 14.6641C101.622 14.2766 100.741 13.6662 100.005 12.8329C99.2686 11.9997 98.9005 10.8758 98.9005 9.4612C98.9005 8.22102 99.2396 7.1068 99.9176 6.11854C100.596 5.11089 101.603 4.3164 102.94 3.73507C104.296 3.15374 105.952 2.86307 107.909 2.86307C109.246 2.86307 110.563 3.01809 111.861 3.32814C113.159 3.6188 114.302 4.0548 115.29 4.63614L113.518 8.90894C111.58 7.86254 109.701 7.33934 107.88 7.33934C106.737 7.33934 105.904 7.51374 105.381 7.86254C104.858 8.19195 104.596 8.62795 104.596 9.17054C104.596 9.71312 104.906 10.1201 105.526 10.3913C106.146 10.6626 107.144 10.9436 108.519 11.2343C110.069 11.5637 111.348 11.9222 112.355 12.3097C113.382 12.6779 114.264 13.2786 115 14.1119C115.755 14.9257 116.133 16.04 116.133 17.4545C116.133 18.6753 115.794 19.7799 115.116 20.7681C114.438 21.7564 113.421 22.5508 112.065 23.1516C110.708 23.7329 109.062 24.0236 107.124 24.0236ZM129.776 23.8783C128.032 23.8783 126.472 23.5295 125.097 22.8319C123.721 22.1343 122.646 21.1654 121.871 19.9252C121.116 18.685 120.738 17.2801 120.738 15.7105C120.738 14.1409 121.116 12.7457 121.871 11.5249C122.646 10.2848 123.721 9.32555 125.097 8.64734C126.472 7.94974 128.032 7.60094 129.776 7.60094C131.558 7.60094 133.098 7.98849 134.396 8.7636C135.694 9.51934 136.614 10.5754 137.157 11.9319L132.885 14.1119C132.168 12.6973 131.122 11.99 129.747 11.99C128.759 11.99 127.935 12.3194 127.277 12.9783C126.637 13.6371 126.318 14.5479 126.318 15.7105C126.318 16.8926 126.637 17.8227 127.277 18.5009C127.935 19.1598 128.759 19.4892 129.747 19.4892C131.122 19.4892 132.168 18.782 132.885 17.3673L137.157 19.5473C136.614 20.9038 135.694 21.9695 134.396 22.7447C133.098 23.5004 131.558 23.8783 129.776 23.8783ZM142.432 7.86254H147.954V23.6167H142.432V7.86254ZM145.193 6.11854C144.186 6.11854 143.372 5.83755 142.752 5.2756C142.132 4.71365 141.822 4.01605 141.822 3.1828C141.822 2.34955 142.132 1.65196 142.752 1.09C143.372 0.528047 144.186 0.24707 145.193 0.24707C146.201 0.24707 147.014 0.518359 147.634 1.06094C148.254 1.58414 148.564 2.26235 148.564 3.0956C148.564 3.9676 148.254 4.69427 147.634 5.2756C147.014 5.83755 146.201 6.11854 145.193 6.11854ZM170.838 15.7687C170.838 15.8074 170.809 16.2628 170.751 17.1348H159.301C159.534 17.9487 159.979 18.5785 160.638 19.0241C161.316 19.4505 162.159 19.6636 163.166 19.6636C163.922 19.6636 164.571 19.557 165.113 19.3439C165.675 19.1308 166.237 18.782 166.799 18.2975L169.705 21.3204C168.174 23.0257 165.937 23.8783 162.992 23.8783C161.151 23.8783 159.534 23.5295 158.139 22.8319C156.744 22.1343 155.659 21.1654 154.884 19.9252C154.128 18.685 153.751 17.2801 153.751 15.7105C153.751 14.1603 154.119 12.7748 154.855 11.554C155.61 10.3138 156.647 9.34494 157.964 8.64734C159.282 7.94974 160.764 7.60094 162.411 7.60094C163.98 7.60094 165.404 7.93035 166.682 8.5892C167.961 9.22867 168.968 10.1685 169.705 11.4087C170.46 12.6295 170.838 14.0828 170.838 15.7687ZM162.44 11.5249C161.587 11.5249 160.87 11.7672 160.289 12.2516C159.727 12.7361 159.369 13.3949 159.214 14.2281H165.665C165.51 13.3949 165.142 12.7361 164.561 12.2516C163.999 11.7672 163.292 11.5249 162.44 11.5249ZM186.838 7.60094C188.796 7.60094 190.365 8.18227 191.546 9.34494C192.748 10.5076 193.348 12.2613 193.348 14.606V23.6167H187.826V15.5071C187.826 13.3561 186.965 12.2807 185.24 12.2807C184.292 12.2807 183.525 12.5907 182.944 13.2108C182.383 13.8309 182.101 14.761 182.101 16.0012V23.6167H176.58V7.86254H181.84V9.57747C182.461 8.938 183.196 8.45355 184.048 8.12414C184.902 7.77534 185.832 7.60094 186.838 7.60094ZM208.288 23.8783C206.544 23.8783 204.984 23.5295 203.609 22.8319C202.234 22.1343 201.159 21.1654 200.384 19.9252C199.628 18.685 199.25 17.2801 199.25 15.7105C199.25 14.1409 199.628 12.7457 200.384 11.5249C201.159 10.2848 202.234 9.32555 203.609 8.64734C204.984 7.94974 206.544 7.60094 208.288 7.60094C210.07 7.60094 211.61 7.98849 212.909 8.7636C214.207 9.51934 215.126 10.5754 215.669 11.9319L211.397 14.1119C210.68 12.6973 209.634 11.99 208.259 11.99C207.271 11.99 206.448 12.3194 205.789 12.9783C205.15 13.6371 204.83 14.5479 204.83 15.7105C204.83 16.8926 205.15 17.8227 205.789 18.5009C206.448 19.1598 207.271 19.4892 208.259 19.4892C209.634 19.4892 210.68 18.782 211.397 17.3673L215.669 19.5473C215.126 20.9038 214.207 21.9695 212.909 22.7447C211.61 23.5004 210.07 23.8783 208.288 23.8783ZM236.874 15.7687C236.874 15.8074 236.845 16.2628 236.787 17.1348H225.337C225.57 17.9487 226.015 18.5785 226.674 19.0241C227.351 19.4505 228.194 19.6636 229.202 19.6636C229.958 19.6636 230.606 19.557 231.149 19.3439C231.71 19.1308 232.272 18.782 232.835 18.2975L235.741 21.3204C234.21 23.0257 231.972 23.8783 229.028 23.8783C227.186 23.8783 225.57 23.5295 224.175 22.8319C222.78 22.1343 221.694 21.1654 220.92 19.9252C220.165 18.685 219.787 17.2801 219.787 15.7105C219.787 14.1603 220.154 12.7748 220.891 11.554C221.647 10.3138 222.682 9.34494 224 8.64734C225.317 7.94974 226.799 7.60094 228.447 7.60094C230.016 7.60094 231.44 7.93035 232.718 8.5892C233.997 9.22867 235.003 10.1685 235.741 11.4087C236.496 12.6295 236.874 14.0828 236.874 15.7687ZM228.476 11.5249C227.622 11.5249 226.906 11.7672 226.325 12.2516C225.762 12.7361 225.404 13.3949 225.25 14.2281H231.701C231.545 13.3949 231.178 12.7361 230.597 12.2516C230.034 11.7672 229.328 11.5249 228.476 11.5249Z" fill="#151E36"/>
</svg>
