<svg width="70" height="70" viewBox="0 0 70 70" fill="none" xmlns="http://www.w3.org/2000/svg">
<path fill-rule="evenodd" clip-rule="evenodd" d="M44.3412 46.0658C43.8913 46.708 43.578 47.3503 43.4094 47.9925H27.2922C27.1234 47.3503 26.81 46.708 26.3601 46.0658H44.3412ZM30.7853 26.7971H31.0855L34.2147 34.9294C34.3911 35.3968 34.8473 35.6433 35.3507 35.6433C35.8535 35.6433 36.3105 35.4301 36.488 34.9633L39.6159 26.7971H39.9161C43.0232 26.7971 45.2391 29.0339 45.2391 32.112V38.0371H41.0575C40.3883 38.0371 39.4048 38.234 39.4048 38.8972V43.4966H30.6535V38.8972C30.6535 38.234 30.3131 38.0371 29.6438 38.0371H25.1433V32.112C25.1433 29.0339 27.6784 26.7971 30.7853 26.7971ZM35.3507 24.124C32.2436 24.124 29.7164 21.6199 29.7164 18.5415C29.7164 15.4634 32.2436 12.9591 35.3507 12.9591C38.4578 12.9591 40.9854 15.4634 40.9854 18.5415C40.9854 21.6199 38.4578 24.124 35.3507 24.124ZM37.0231 26.7971L35.3507 31.2161L33.6783 26.7971H37.0231ZM54.6388 38.8972V29.8503C54.6388 28.0191 56.3297 26.7971 58.1778 26.7971H63.8849C65.7331 26.7971 66.9556 28.0191 66.9556 29.8503V46.8135C66.9556 48.6442 65.7331 50.2407 63.8849 50.2407H51.3298C50.6605 50.2407 50.101 50.6736 50.101 51.3366V67.2612H45.2391V49.075C45.2391 47.2438 47.1991 46.0658 49.0473 46.0658H59.3195C59.9887 46.0658 60.4731 45.2146 60.4731 44.5516V33.5412H57.8801V43.4966H41.9979V40.2852H53.6127C54.2817 40.2852 54.6388 39.5603 54.6388 38.8972ZM53.6848 18.5415C53.6848 15.4634 56.2124 12.9591 59.3195 12.9591C62.4262 12.9591 64.9538 15.4634 64.9538 18.5415C64.9538 21.6199 62.4262 24.124 59.3195 24.124C56.2124 24.124 53.6848 21.6199 53.6848 18.5415ZM5.74795 18.5415C5.74795 15.4634 8.27516 12.9591 11.3819 12.9591C14.489 12.9591 17.0165 15.4634 17.0165 18.5415C17.0165 21.6199 14.489 24.124 11.3819 24.124C8.27516 24.124 5.74795 21.6199 5.74795 18.5415ZM9.90942 33.5412V44.5516C9.90942 45.2146 10.7129 46.0658 11.3819 46.0658H21.6544C23.5023 46.0658 24.8193 47.2438 24.8193 49.075V67.2612H20.2814V51.3366C20.2814 50.6736 20.0409 50.2407 19.3713 50.2407H6.81661C4.96843 50.2407 3.4269 48.6442 3.4269 46.8135V29.8503C3.4269 28.0191 4.96843 26.7971 6.81661 26.7971H12.5235C14.3716 26.7971 15.7437 28.0191 15.7437 29.8503V38.8972C15.7437 39.5603 16.4198 40.2852 17.0888 40.2852H28.0605V43.4966H12.1783V33.5412H9.90942ZM5.37164 52.4115V69.5092H7.64053V52.8099H17.6884V68.2994C17.6884 68.9627 18.7023 69.5092 19.3713 69.5092H26.2197C26.8891 69.5092 27.0881 68.9627 27.0881 68.2994V50.5617H33.5706V67.2612H29.3569V69.5092H41.0255V67.2612H36.4878V50.5617H42.9703V68.2994C42.9703 68.9627 43.8125 69.5092 44.4817 69.5092H51.3298C51.9992 69.5092 52.37 68.9627 52.37 68.2994V52.8099H62.4179V69.5092H64.6868V52.4115C67.2798 51.8483 69.5486 49.5029 69.5486 46.8135V29.8503C69.5486 27.0861 67.6333 24.7495 64.8944 24.2413C66.4619 22.7212 67.3526 20.7031 67.3526 18.5415C67.3526 14.137 63.7503 10.5537 59.305 10.5537C54.8595 10.5537 51.25 14.137 51.25 18.5415C51.25 21.2128 52.4162 23.6853 54.6648 25.177C53.1309 26.2539 52.0458 27.9927 52.0458 29.8503V38.0371H47.5079V32.112C47.5079 28.1196 44.7634 24.7463 40.7866 24.2045C42.3299 22.6903 43.2951 20.6851 43.2951 18.5415C43.2951 14.137 39.7375 10.5537 35.292 10.5537C30.8466 10.5537 27.2593 14.137 27.2593 18.5415C27.2593 20.6851 28.0356 22.6903 29.5786 24.2045C25.6021 24.7463 22.5504 28.1196 22.5504 32.112V38.0371H18.0126V29.8503C18.0126 27.9927 17.245 26.2539 15.7113 25.177C17.96 23.6853 19.3713 21.2128 19.3713 18.5415C19.3713 14.137 15.791 10.5537 11.3456 10.5537C6.90022 10.5537 3.30178 14.137 3.30178 18.5415C3.30178 20.7031 3.90853 22.7212 5.47634 24.2413C2.73747 24.7495 0.509766 27.0861 0.509766 29.8503V46.8135C0.509766 49.5029 2.77865 51.8483 5.37164 52.4115Z" fill="#00264E"/>
<path fill-rule="evenodd" clip-rule="evenodd" d="M11.3819 13.2806C8.4541 13.2806 6.07176 15.6406 6.07176 18.5419C6.07176 21.4431 8.4541 23.8032 11.3819 23.8032C14.3101 23.8032 16.6924 21.4431 16.6924 18.5419C16.6924 15.6406 14.3101 13.2806 11.3819 13.2806ZM11.3819 24.4454C8.09626 24.4454 5.42351 21.7972 5.42351 18.5419C5.42351 15.2867 8.09626 12.6383 11.3819 12.6383C14.6676 12.6383 17.3407 15.2867 17.3407 18.5419C17.3407 21.7972 14.6676 24.4454 11.3819 24.4454ZM35.3506 13.2806C32.4225 13.2806 30.0402 15.6406 30.0402 18.5419C30.0402 21.4431 32.4225 23.8032 35.3506 23.8032C38.2785 23.8032 40.6609 21.4431 40.6609 18.5419C40.6609 15.6406 38.2785 13.2806 35.3506 13.2806ZM35.3506 24.4454C32.065 24.4454 29.392 21.7972 29.392 18.5419C29.392 15.2867 32.065 12.6383 35.3506 12.6383C38.6363 12.6383 41.3091 15.2867 41.3091 18.5419C41.3091 21.7972 38.6363 24.4454 35.3506 24.4454ZM59.3192 13.2806C56.3914 13.2806 54.0094 15.6406 54.0094 18.5419C54.0094 21.4431 56.3914 23.8032 59.3192 23.8032C62.2473 23.8032 64.6293 21.4431 64.6293 18.5419C64.6293 15.6406 62.2473 13.2806 59.3192 13.2806ZM59.3192 24.4454C56.0338 24.4454 53.361 21.7972 53.361 18.5419C53.361 15.2867 56.0338 12.6383 59.3192 12.6383C62.6049 12.6383 65.2777 15.2867 65.2777 18.5419C65.2777 21.7972 62.6049 24.4454 59.3192 24.4454ZM34.1459 27.1993L35.3506 30.3823L36.5556 27.1993H34.1459ZM35.3506 32.212L33.2105 26.557H37.4911L35.3506 32.212ZM30.9229 43.2563H39.026V38.8974C39.026 38.4864 39.2901 37.797 41.0577 37.797H44.8602V32.1124C44.8602 29.2196 42.8274 27.1993 39.916 27.1993H39.8395L36.7912 35.1282C36.584 35.6723 36.0589 35.9851 35.3506 35.9851C34.6729 35.9851 34.1214 35.6394 33.911 35.0831L30.8628 27.1993H30.785C27.7224 27.1993 25.4128 29.3113 25.4128 32.1124V37.797H29.6438C30.2625 37.797 30.9229 37.882 30.9229 38.8974V43.2563ZM39.6742 43.8988H30.2746V38.8974C30.2746 38.5118 30.2554 38.4392 29.6438 38.4392H24.7644V32.1124C24.7644 28.9452 27.3526 26.557 30.785 26.557H31.3086L34.5171 34.8552C34.6836 35.2956 35.1556 35.3429 35.3506 35.3429C35.6547 35.3429 36.0461 35.266 36.1848 34.9005L39.3926 26.557H39.916C43.2088 26.557 45.5084 28.8415 45.5084 32.1124V38.4392H41.0577C40.4194 38.4392 39.6742 38.5594 39.6742 38.8974V43.8988ZM27.536 47.7524H43.1655C43.2996 47.3268 43.4951 46.8972 43.7491 46.4677H26.9524C27.2061 46.897 27.4018 47.3268 27.536 47.7524ZM43.66 48.3947H27.041L26.9781 48.1544C26.8217 47.5574 26.5237 46.9433 26.0939 46.3301L25.7405 45.8255H44.9608L44.6075 46.3301C44.1773 46.9444 43.8798 47.5581 43.7229 48.1544L43.66 48.3947ZM20.5508 67.0209H24.4404V49.0751C24.4404 47.4668 23.3726 46.4677 21.6541 46.4677H11.3819C10.5512 46.4677 9.53052 45.4113 9.53052 44.552V33.3009H12.4477V43.2563H27.6816V40.6871H17.0888C16.2672 40.6871 15.3648 39.7505 15.3648 38.8974V29.8507C15.3648 28.24 14.2495 27.1993 12.5232 27.1993H6.81662C5.266 27.1993 3.69625 28.1099 3.69625 29.8507V46.8134C3.69625 48.4814 5.18367 50.0004 6.81662 50.0004H19.3713C20.4286 50.0004 20.5508 50.7631 20.5508 51.3366V67.0209ZM25.0886 67.6633H19.9026V51.3366C19.9026 50.7085 19.7408 50.6426 19.3713 50.6426H6.81662C4.80929 50.6426 3.048 48.8533 3.048 46.8134V29.8507C3.048 27.942 4.63297 26.557 6.81662 26.557H12.5232C14.6106 26.557 16.013 27.8804 16.013 29.8507V38.8974C16.013 39.4014 16.6162 40.0449 17.0888 40.0449H28.3298V43.8988H11.7994V33.9433H10.1788V44.552C10.1788 45.0518 10.9097 45.8255 11.3819 45.8255H21.6541C23.7406 45.8255 25.0886 47.1012 25.0886 49.0751V67.6633ZM45.5084 67.0209H49.7221V51.3366C49.7221 50.5623 50.3982 50.0004 51.3295 50.0004H63.8848C65.6335 50.0004 66.5767 48.3584 66.5767 46.8134V29.8507C66.5767 28.1902 65.5707 27.1993 63.8848 27.1993H58.178C56.5927 27.1993 54.9082 28.1284 54.9082 29.8507V38.8974C54.9082 39.787 54.4632 40.6871 53.6126 40.6871H42.2672V43.2563H57.5012V33.3009H60.7424V44.552C60.7424 45.3348 60.2357 46.4677 59.3192 46.4677H49.047C47.3453 46.4677 45.5084 47.4647 45.5084 49.0751V67.0209ZM50.3705 67.6633H44.8602V49.0751C44.8602 47.5126 46.4611 45.8255 49.047 45.8255H59.3192C59.7293 45.8255 60.0942 45.1132 60.0942 44.552V33.9433H58.1494V43.8988H41.619V40.0449H53.6126C54.0593 40.0449 54.2599 39.3737 54.2599 38.8974V29.8507C54.2599 27.7114 56.2785 26.557 58.178 26.557H63.8848C65.9138 26.557 67.2249 27.8499 67.2249 29.8507V46.8134C67.2249 48.9965 65.7891 50.6426 63.8848 50.6426H51.3295C50.9732 50.6426 50.3705 50.7888 50.3705 51.3366V67.6633ZM62.6873 69.269H64.3079V52.1536L64.5625 52.0984C67.1462 51.5367 69.1697 49.2151 69.1697 46.8134V29.8507C69.1697 27.2104 67.3757 25.0338 64.807 24.5569L64.1947 24.4433L64.6401 24.0119C66.1714 22.5273 67.0149 20.5846 67.0149 18.5419C67.0149 14.3143 63.5533 10.8752 59.2982 10.8752C55.0375 10.8752 51.5707 14.3143 51.5707 18.5419C51.5707 21.2205 52.7538 23.5416 54.816 24.9101L55.207 25.1697L54.823 25.439C53.2763 26.5255 52.3151 28.2155 52.3151 29.8507V38.4392H47.129V32.1124C47.129 28.2211 44.4318 25.0293 40.715 24.5227L40.0649 24.4343L40.5313 23.9765C42.0958 22.4412 42.9572 20.5111 42.9572 18.5419C42.9572 14.3143 39.5155 10.8752 35.285 10.8752C31.0366 10.8752 27.5802 14.3143 27.5802 18.5419C27.5802 20.6864 28.3398 22.5657 29.7777 23.9765L30.2439 24.4343L29.5935 24.5227C25.7316 25.0492 22.8198 28.3117 22.8198 32.1124V38.4392H17.6337V29.8507C17.6337 27.9736 16.8746 26.4069 15.4964 25.439L15.1126 25.1697L15.5035 24.9101C17.7141 23.4437 19.0336 21.0632 19.0336 18.5419C19.0336 14.3143 15.5819 10.8752 11.3388 10.8752C7.08401 10.8752 3.62267 14.3143 3.62267 18.5419C3.62267 20.8518 4.31275 22.6922 5.67406 24.0119L6.11942 24.4433L5.50715 24.5569C2.81171 25.0572 0.779107 27.3328 0.779107 29.8507V46.8134C0.779107 49.2151 2.80263 51.5367 5.38624 52.0984L5.64101 52.1536V69.269H7.26163V52.5695H17.9578V68.2998C17.9578 68.7275 18.8342 69.269 19.3713 69.269H26.2194C26.3785 69.269 26.7092 69.269 26.7092 68.2998V50.3216H33.8399V67.6633H29.6262V69.269H40.6466V67.6633H36.1089V50.3216H43.2396V68.2998C43.2396 68.7677 43.9686 69.269 44.4816 69.269H51.3295C51.9723 69.269 51.9911 68.399 51.9911 68.2998V52.5695H62.6873V69.269ZM64.9561 69.9113H62.0388V53.2118H52.6393V68.2998C52.6393 69.2489 52.1006 69.9113 51.3295 69.9113H44.4816C43.6488 69.9113 42.5914 69.1527 42.5914 68.2998V50.9638H36.7571V67.0209H41.2948V69.9113H28.978V67.0209H33.1917V50.9638H27.3574V68.2998C27.3574 69.6319 26.7387 69.9113 26.2194 69.9113H19.3713C18.5574 69.9113 17.3095 69.1894 17.3095 68.2998V53.2118H7.9099V69.9113H4.99277V52.6647C2.24645 51.9473 0.130859 49.4249 0.130859 46.8134V29.8507C0.130859 27.2083 2.11258 24.8068 4.8255 24.0553C3.59643 22.6523 2.97442 20.8008 2.97442 18.5419C2.97442 13.9601 6.72684 10.2329 11.3388 10.2329C15.9395 10.2329 19.6818 13.9601 19.6818 18.5419C19.6818 21.1357 18.3989 23.59 16.2289 25.1892C17.5393 26.2824 18.2819 27.9555 18.2819 29.8507V37.797H22.1713V32.1124C22.1713 28.1928 25.0253 24.8016 28.9033 23.9904C27.611 22.5159 26.9318 20.6453 26.9318 18.5419C26.9318 13.9601 30.679 10.2329 35.285 10.2329C39.8729 10.2329 43.6056 13.9601 43.6056 18.5419C43.6056 20.4983 42.83 22.4128 41.4092 23.9924C45.1342 24.7901 47.7775 28.1103 47.7775 32.1124V37.797H51.6669V29.8507C51.6669 28.143 52.5849 26.3915 54.0887 25.1854C52.0704 23.6724 50.9225 21.2767 50.9225 18.5419C50.9225 13.9601 54.6797 10.2329 59.2982 10.2329C63.9104 10.2329 67.6631 13.9601 67.6631 18.5419C67.6631 20.5737 66.8966 22.512 65.4929 24.0581C68.0671 24.7888 69.8179 27.0943 69.8179 29.8507V46.8134C69.8179 49.4249 67.7023 51.9473 64.9561 52.6647V69.9113Z" fill="#00264E"/>
<path fill-rule="evenodd" clip-rule="evenodd" d="M36.4885 37.7158H33.5713V40.285H36.4885V37.7158Z" fill="#00264E"/>
<path fill-rule="evenodd" clip-rule="evenodd" d="M33.8943 39.9637H36.1631V38.037H33.8943V39.9637ZM36.8113 40.6059H33.2461V37.3945H36.8113V40.6059Z" fill="#00264E"/>
<path fill-rule="evenodd" clip-rule="evenodd" d="M14.8063 6.10211V2.70956H28.5025V6.10211H23.9373C23.6905 6.10211 23.4497 6.18113 23.2523 6.32819L20.5132 8.36393V7.23285C20.5132 6.60888 20.0017 6.10211 19.3716 6.10211H14.8063ZM18.8614 11.6377C19.0225 11.717 19.1982 11.7565 19.3716 11.7565C19.6137 11.7565 19.8545 11.6794 20.0565 11.5304L24.3175 8.36393H29.6442C30.2742 8.36393 30.7854 7.85716 30.7854 7.23285V1.57881C30.7854 0.954524 30.2742 0.447754 29.6442 0.447754H13.665C13.0349 0.447754 12.5234 0.954524 12.5234 1.57881V7.23285C12.5234 7.85716 13.0349 8.36393 13.665 8.36393H18.2303V10.6254C18.2303 11.0541 18.4747 11.4453 18.8614 11.6377Z" fill="#00264E"/>
<path fill-rule="evenodd" clip-rule="evenodd" d="M15.1303 5.78082H19.3715C20.1795 5.78082 20.8368 6.4321 20.8368 7.2327V7.7215L23.0577 6.07113C23.3093 5.88391 23.6213 5.78082 23.9371 5.78082H28.1783V3.03055H15.1303V5.78082ZM20.1886 9.00606V7.2327C20.1886 6.78631 19.8223 6.42311 19.3715 6.42311H14.482V2.38827H28.8265V6.42311H23.9371C23.7611 6.42311 23.5871 6.48059 23.4467 6.58496L20.1886 9.00606ZM13.6649 0.768746C13.2141 0.768746 12.8475 1.13195 12.8475 1.57866V7.2327C12.8475 7.67941 13.2141 8.04264 13.6649 8.04264H18.554V10.6253C18.554 10.9339 18.7278 11.212 19.0065 11.3504C19.2775 11.4837 19.6165 11.4545 19.8628 11.2727L24.2093 8.04264H29.6437C30.0945 8.04264 30.4612 7.67941 30.4612 7.2327V1.57866C30.4612 1.13195 30.0945 0.768746 29.6437 0.768746H13.6649ZM19.3715 12.0775C19.1465 12.0775 18.92 12.0248 18.7174 11.9253C18.2163 11.6764 17.9058 11.1786 17.9058 10.6253V8.68492H13.6649C12.8565 8.68492 12.1992 8.03364 12.1992 7.2327V1.57866C12.1992 0.777743 12.8565 0.126465 13.6649 0.126465H29.6437C30.4521 0.126465 31.1094 0.777743 31.1094 1.57866V7.2327C31.1094 8.03364 30.4521 8.68492 29.6437 8.68492H24.4252L20.2508 11.7868C19.9974 11.9744 19.6852 12.0775 19.3715 12.0775Z" fill="#00264E"/>
<path fill-rule="evenodd" clip-rule="evenodd" d="M41.0576 3.84033H43.3405V6.10215H41.0576V3.84033Z" fill="#00264E"/>
<path fill-rule="evenodd" clip-rule="evenodd" d="M41.3816 5.78102H43.0161V4.16181H41.3816V5.78102ZM43.6643 6.42331H40.7334V3.51953H43.6643V6.42331Z" fill="#00264E"/>
<path fill-rule="evenodd" clip-rule="evenodd" d="M45.623 3.84033H47.9058V6.10215H45.623V3.84033Z" fill="#00264E"/>
<path fill-rule="evenodd" clip-rule="evenodd" d="M45.947 5.78102H47.5817V4.16181H45.947V5.78102ZM48.2299 6.42331H45.2988V3.51953H48.2299V6.42331Z" fill="#00264E"/>
<path fill-rule="evenodd" clip-rule="evenodd" d="M50.1885 3.84033H52.4714V6.10215H50.1885V3.84033Z" fill="#00264E"/>
<path fill-rule="evenodd" clip-rule="evenodd" d="M50.5125 5.78102H52.147V4.16181H50.5125V5.78102ZM52.7954 6.42331H49.8643V3.51953H52.7954V6.42331Z" fill="#00264E"/>
</svg>
