<svg width="69" height="67" viewBox="0 0 69 67" fill="none" xmlns="http://www.w3.org/2000/svg">
<path fill-rule="evenodd" clip-rule="evenodd" d="M63.5037 21.9197C62.8419 22.1632 62.5038 22.8917 62.7487 23.5476L62.7645 23.5877C62.9549 24.0991 63.4436 24.4151 63.9629 24.4151C64.1104 24.4151 64.2603 24.3897 64.4072 24.3359C65.0691 24.0932 65.4067 23.3649 65.1623 22.708L65.1464 22.6679C64.9015 22.0113 64.1656 21.6763 63.5037 21.9197Z" fill="#00264E"/>
<path fill-rule="evenodd" clip-rule="evenodd" d="M63.9473 21.9859C63.8132 21.9859 63.681 22.0095 63.5541 22.0562C62.969 22.2714 62.6694 22.9182 62.8855 23.4976L62.9004 23.5354C63.0644 23.9759 63.4907 24.2702 63.9624 24.2702C64.0962 24.2702 64.2288 24.2464 64.3557 24.1999C64.9408 23.9855 65.2402 23.3389 65.0241 22.7587L65.009 22.7204C64.8453 22.2804 64.4186 21.9859 63.9473 21.9859ZM63.9624 24.5608C63.3685 24.5608 62.8316 24.19 62.6264 23.6383L62.6113 23.6008C62.3383 22.8687 62.7158 22.0549 63.4524 21.7837C63.6116 21.725 63.7784 21.6953 63.9473 21.6953C64.5407 21.6953 65.0776 22.0663 65.2837 22.618L65.2981 22.6563C65.5712 23.3886 65.1938 24.2026 64.4574 24.4726C64.2976 24.5309 64.1311 24.5608 63.9624 24.5608Z" fill="#00264E"/>
<path fill-rule="evenodd" clip-rule="evenodd" d="M4.43161 43.3382C3.76802 43.5726 3.42435 44.3029 3.65836 44.9611C3.84396 45.4814 4.3369 45.8066 4.86443 45.8066C5.00518 45.8066 5.14885 45.7836 5.28961 45.7341C5.95554 45.5008 6.30508 44.7774 6.06933 44.118C6.06874 44.1149 6.06376 44.1003 6.06199 44.0968L4.85856 44.5233L6.0611 44.0936C5.82212 43.437 5.0952 43.1036 4.43161 43.3382Z" fill="#00264E"/>
<path fill-rule="evenodd" clip-rule="evenodd" d="M4.86537 43.4088C4.73459 43.4088 4.60498 43.4312 4.48036 43.4752C3.89447 43.6821 3.58774 44.3273 3.79623 44.913C3.95546 45.3608 4.38447 45.6616 4.86361 45.6616C4.99235 45.6616 5.11873 45.6398 5.23954 45.5974C5.52543 45.4972 5.75446 45.2934 5.88495 45.0228C5.99697 44.79 6.02453 44.5324 5.96558 44.2855L4.90731 44.6605L4.80819 44.387L5.86353 44.0096C5.67265 43.6449 5.28792 43.4088 4.86537 43.4088ZM4.86361 45.9522C4.26043 45.9522 3.72029 45.5736 3.51942 45.0097C3.25757 44.2731 3.64435 43.4622 4.38184 43.2015C4.53841 43.1463 4.70086 43.1182 4.86537 43.1182C5.45917 43.1182 5.99404 43.4885 6.19695 44.0404L6.20282 44.0568L6.24797 44.1813L6.2424 44.1833C6.32831 44.4992 6.29752 44.8413 6.14945 45.148C5.98523 45.4887 5.69698 45.7455 5.33749 45.8711C5.18588 45.9249 5.02605 45.9522 4.86361 45.9522Z" fill="#00264E"/>
<path fill-rule="evenodd" clip-rule="evenodd" d="M23.8927 3.2624C23.2241 3.48789 22.8664 4.20736 23.0939 4.86989C23.3215 5.53241 24.0478 5.88692 24.7161 5.66142C32.4886 3.04068 40.9712 3.66776 48.2174 7.35027C48.5301 6.5535 48.9421 5.80671 49.439 5.12384C41.566 1.10455 32.3428 0.413548 23.8927 3.2624Z" fill="#00264E"/>
<path fill-rule="evenodd" clip-rule="evenodd" d="M34.4618 3.91735C39.1978 3.91735 43.9239 5.03405 48.1403 7.1486C48.4256 6.45498 48.7882 5.79306 49.2211 5.17701C44.673 2.88492 39.5732 1.67436 34.4606 1.67436C30.8764 1.67436 27.3368 2.25495 23.9399 3.40012C23.349 3.59947 23.0318 4.23787 23.2327 4.82309C23.3889 5.27843 23.8197 5.58412 24.3041 5.58412C24.4279 5.58412 24.5504 5.56408 24.669 5.52398C27.8309 4.45783 31.1256 3.91735 34.4618 3.91735ZM48.2949 7.5531L48.1502 7.47957C43.9388 5.33946 39.2054 4.20793 34.4618 4.20793C31.1575 4.20793 27.8945 4.74318 24.7633 5.79915C24.6146 5.84913 24.4602 5.8747 24.3041 5.8747C23.6938 5.8747 23.152 5.48969 22.9549 4.91665C22.7019 4.17975 23.1016 3.37601 23.8455 3.12494C27.2725 1.9696 30.8441 1.38379 34.4606 1.38379C39.6759 1.38379 44.8784 2.63241 49.5062 4.99483L49.6573 5.07211L49.5575 5.20898C49.064 5.88749 48.659 6.62557 48.3538 7.40287L48.2949 7.5531Z" fill="#00264E"/>
<path fill-rule="evenodd" clip-rule="evenodd" d="M2.23075 39.6411C2.34044 40.2553 2.87939 40.6873 3.48873 40.6873C3.56204 40.6873 3.6371 40.6816 3.71189 40.6677C4.40774 40.5463 4.87163 39.8894 4.74906 39.2C3.58141 32.6566 4.64673 25.9135 7.73711 20.0775C6.93073 19.7747 6.17418 19.3722 5.48097 18.8857C2.12198 25.2213 0.964279 32.5404 2.23075 39.6411Z" fill="#00264E"/>
<path fill-rule="evenodd" clip-rule="evenodd" d="M5.53399 19.0994C2.25329 25.3656 1.13168 32.6446 2.37527 39.6155C2.47086 40.1525 2.93887 40.542 3.48839 40.542C3.55759 40.542 3.62358 40.5361 3.68487 40.5249C3.98454 40.4724 4.24406 40.3089 4.41706 40.0635C4.59037 39.8181 4.65723 39.5204 4.60445 39.2253C3.44822 32.7454 4.48773 25.9798 7.53152 20.1543C6.83067 19.8778 6.16034 19.524 5.53399 19.0994ZM3.48839 40.8325C2.79635 40.8325 2.20666 40.3419 2.08645 39.666C0.822009 32.578 1.98147 25.174 5.35132 18.8184L5.42932 18.6714L5.56567 18.7673C6.25593 19.2517 7.00398 19.6466 7.78868 19.9415L7.94379 19.9997L7.86668 20.1449C4.79476 25.9462 3.73882 32.7043 4.89298 39.1746C4.95926 39.5464 4.87569 39.9213 4.65751 40.2301C4.43935 40.539 4.11239 40.7453 3.73735 40.8107C3.65965 40.8253 3.57548 40.8325 3.48839 40.8325Z" fill="#00264E"/>
<path fill-rule="evenodd" clip-rule="evenodd" d="M66.4751 27.215C66.3284 26.5302 65.6499 26.0936 64.9593 26.238C64.2685 26.3832 63.8265 27.0556 63.9734 27.7399C65.4557 34.6718 64.4271 41.84 61.0869 48.0388C61.8989 48.3288 62.6618 48.7186 63.3621 49.1935C66.9698 42.477 68.0787 34.7178 66.4751 27.215Z" fill="#00264E"/>
<path fill-rule="evenodd" clip-rule="evenodd" d="M61.2951 47.9602C62.001 48.2254 62.6769 48.5687 63.3088 48.9829C66.8355 42.3369 67.909 34.624 66.3317 27.245C66.205 26.6534 65.5927 26.253 64.9896 26.3801C64.3791 26.5088 63.9877 27.1053 64.117 27.7101C65.5876 34.5865 64.5849 41.7712 61.2951 47.9602ZM63.4147 49.4049L63.2794 49.3132C62.5827 48.841 61.8283 48.4581 61.0371 48.1755L60.8779 48.1186L60.9576 47.9704C64.278 41.8086 65.2977 34.6349 63.8301 27.7702C63.6671 27.0088 64.16 26.2577 64.9289 26.0958C65.0265 26.0756 65.126 26.0649 65.2247 26.0649C65.8937 26.0649 66.4798 26.5361 66.6184 27.1847C68.2213 34.6834 67.1109 42.5238 63.4914 49.2617L63.4147 49.4049Z" fill="#00264E"/>
<path fill-rule="evenodd" clip-rule="evenodd" d="M31.7347 66.2897C32.6289 66.3632 33.5257 66.4001 34.4251 66.4001C38.2784 66.4001 42.145 65.7278 45.7439 64.421C46.4065 64.1799 46.747 63.4523 46.5037 62.7955C46.2606 62.1379 45.5264 61.8005 44.8634 62.0414C36.7396 64.9925 27.8223 64.3679 20.2442 60.3501C19.9472 61.1525 19.5481 61.9058 19.0654 62.5974C22.9628 64.6528 27.3197 65.9262 31.7347 66.2897Z" fill="#00264E"/>
<path fill-rule="evenodd" clip-rule="evenodd" d="M19.2791 62.5452C23.1198 64.5456 27.427 65.7899 31.7472 66.1452C32.6333 66.2181 33.534 66.255 34.4253 66.255C38.2479 66.255 42.1444 65.5736 45.6939 64.2849C46.2796 64.0717 46.5812 63.4263 46.3663 62.8457C46.2037 62.4052 45.7764 62.1094 45.3037 62.1094C45.1711 62.1094 45.0404 62.1326 44.9143 62.1782C41.5378 63.4048 38.0139 64.0265 34.4396 64.0265C29.542 64.0269 24.6646 62.827 20.3229 60.5559C20.0529 61.2498 19.7025 61.9179 19.2791 62.5452ZM34.4253 66.5456C33.5261 66.5456 32.6168 66.5081 31.723 66.435C27.3094 66.0715 22.9086 64.7891 18.9967 62.726L18.8516 62.6492L18.9451 62.515C19.4286 61.8226 19.8195 61.0771 20.1066 60.3002L20.1649 60.1431L20.3136 60.2221C24.6497 62.5211 29.5346 63.7363 34.4396 63.7361C37.979 63.7361 41.4696 63.1199 44.8134 61.9053C44.9714 61.8477 45.1368 61.8188 45.3037 61.8188C45.8989 61.8188 46.4366 62.1914 46.6417 62.7457C46.9121 63.4766 46.5322 64.2892 45.7948 64.5574C42.2132 65.8581 38.2816 66.5456 34.4253 66.5456Z" fill="#00264E"/>
<path fill-rule="evenodd" clip-rule="evenodd" d="M52.9082 40.1318C52.4464 40.1318 52.0723 40.5026 52.0723 40.9604C52.0723 41.4176 52.4464 41.7888 52.9082 41.7888C53.3698 41.7888 53.7441 41.4176 53.7441 40.9604C53.7441 40.5026 53.3698 40.1318 52.9082 40.1318Z" fill="#00264E"/>
<path fill-rule="evenodd" clip-rule="evenodd" d="M52.9075 40.2769C52.5276 40.2769 52.2181 40.5834 52.2181 40.9601C52.2181 41.3365 52.5276 41.6431 52.9075 41.6431C53.2878 41.6431 53.5973 41.3365 53.5973 40.9601C53.5973 40.5834 53.2878 40.2769 52.9075 40.2769ZM52.9075 41.9336C52.3656 41.9336 51.9248 41.4971 51.9248 40.9601C51.9248 40.4229 52.3656 39.9863 52.9075 39.9863C53.4493 39.9863 53.8905 40.4229 53.8905 40.9601C53.8905 41.4971 53.4493 41.9336 52.9075 41.9336Z" fill="#00264E"/>
<path fill-rule="evenodd" clip-rule="evenodd" d="M18.1789 40.9604C18.1789 40.5026 17.8047 40.1318 17.3428 40.1318C16.8813 40.1318 16.5068 40.5026 16.5068 40.9604C16.5068 41.418 16.8813 41.7888 17.3428 41.7888C17.8047 41.7888 18.1789 41.418 18.1789 40.9604Z" fill="#00264E"/>
<path fill-rule="evenodd" clip-rule="evenodd" d="M17.343 40.2769C16.963 40.2769 16.6536 40.5834 16.6536 40.9601C16.6536 41.3365 16.963 41.6431 17.343 41.6431C17.723 41.6431 18.0324 41.3365 18.0324 40.9601C18.0324 40.5834 17.723 40.2769 17.343 40.2769ZM17.343 41.9336C16.8011 41.9336 16.3604 41.4971 16.3604 40.9601C16.3604 40.4229 16.8011 39.9863 17.343 39.9863C17.8849 39.9863 18.3256 40.4229 18.3256 40.9601C18.3256 41.4971 17.8849 41.9336 17.343 41.9336Z" fill="#00264E"/>
<path fill-rule="evenodd" clip-rule="evenodd" d="M50.4982 50.8201L50.4976 50.5493C49.5667 51.471 48.8172 52.6882 48.3037 53.8506H48.7237C49.1351 52.6882 49.7408 51.6714 50.4982 50.8201Z" fill="#00264E"/>
<path fill-rule="evenodd" clip-rule="evenodd" d="M48.5308 53.5603H48.621C48.7604 52.9791 48.922 52.8207 49.1117 52.4708C48.9007 52.8189 48.7064 52.9791 48.5308 53.5603ZM48.8284 53.8509H48.0801L48.1701 53.6102C48.7296 52.3444 49.4987 51.188 50.3945 50.3008L50.6444 50.0444L50.6456 50.77L50.6089 50.8089C49.7708 51.7507 49.2325 52.6728 48.8627 53.7176L48.8284 53.8509Z" fill="#00264E"/>
<path fill-rule="evenodd" clip-rule="evenodd" d="M49.8832 10.739C49.8832 6.17721 53.6284 2.46563 58.2322 2.46563C62.8356 2.46563 66.5808 6.17721 66.5808 10.739C66.5808 12.8115 65.8061 14.7069 64.5308 16.1601C63.7942 14.7825 62.5873 13.6872 61.1387 13.0512C61.6308 12.4078 61.9231 11.6067 61.9231 10.739C61.9231 8.62303 60.186 6.90162 58.0504 6.90162C55.9149 6.90162 54.1778 8.62303 54.1778 10.739C54.1778 11.6628 54.509 12.5113 55.0596 13.1741C53.7295 13.8235 52.6244 14.8676 51.9332 16.1601C50.6579 14.7069 49.8832 12.8117 49.8832 10.739ZM58.0506 12.4407C57.1038 12.4407 56.3335 11.6773 56.3335 10.739C56.3335 9.80103 57.1038 9.03768 58.0506 9.03768C58.9975 9.03768 59.7678 9.80074 59.7678 10.739C59.7678 11.6773 58.9971 12.4407 58.0506 12.4407ZM53.6205 17.6313C54.3291 15.8271 56.1671 14.5764 58.2322 14.5764C60.2968 14.5764 62.135 15.8271 62.8439 17.6313C61.5214 18.503 59.9358 19.0124 58.2322 19.0124C56.5282 19.0124 54.9426 18.503 53.6205 17.6313ZM51.7704 18.9404C53.5537 20.3229 55.7974 21.1481 58.2322 21.1481C60.6666 21.1481 62.9105 20.3229 64.6936 18.9401C64.7457 18.9058 64.7945 18.8671 64.8393 18.8247C67.2149 16.9147 68.7364 13.9996 68.7364 10.739C68.7364 4.99919 64.0242 0.32959 58.2322 0.32959C52.44 0.32959 47.7275 4.99949 47.7275 10.739C47.7275 13.9999 49.2489 16.9147 51.6246 18.8247C51.6697 18.8671 51.7182 18.9058 51.7704 18.9404Z" fill="#00264E"/>
<path fill-rule="evenodd" clip-rule="evenodd" d="M58.0504 9.18297C57.1845 9.18297 56.4799 9.88093 56.4799 10.739C56.4799 11.5974 57.1845 12.2954 58.0504 12.2954C58.9163 12.2954 59.6208 11.5974 59.6208 10.739C59.6208 9.88093 58.9163 9.18297 58.0504 9.18297ZM58.0504 12.5859C57.0227 12.5859 56.1866 11.7575 56.1866 10.739C56.1866 9.72084 57.0227 8.89238 58.0504 8.89238C59.0783 8.89238 59.914 9.72084 59.914 10.739C59.914 11.7575 59.0783 12.5859 58.0504 12.5859ZM58.232 2.61121C53.7092 2.61121 50.0296 6.25741 50.0296 10.739C50.0296 12.6243 50.695 14.4503 51.9074 15.9055C52.5796 14.7389 53.6082 13.7616 54.834 13.125C54.3153 12.4386 54.0312 11.5983 54.0312 10.739C54.0312 8.54311 55.8339 6.75633 58.0502 6.75633C60.2663 6.75633 62.0695 8.54311 62.0695 10.739C62.0695 11.5524 61.8256 12.3276 61.3622 12.9931C62.7097 13.6245 63.8329 14.6488 64.5564 15.9053C65.7687 14.45 66.4343 12.624 66.4343 10.739C66.4343 6.25741 62.7547 2.61121 58.232 2.61121ZM51.9626 16.4155L51.8228 16.2557C50.4773 14.7229 49.7363 12.7638 49.7363 10.739C49.7363 6.097 53.5478 2.32062 58.232 2.32062C62.9163 2.32062 66.7276 6.097 66.7276 10.739C66.7276 12.7635 65.9866 14.7226 64.6411 16.2554L64.5009 16.4152L64.401 16.2281C63.6866 14.892 62.5067 13.811 61.0793 13.1842L60.9098 13.1099L61.0218 12.9637C61.5153 12.318 61.7762 11.5489 61.7762 10.739C61.7762 8.70322 60.1047 7.04691 58.0502 7.04691C55.9957 7.04691 54.3242 8.70322 54.3242 10.739C54.3242 11.591 54.6254 12.4232 55.1728 13.082L55.2906 13.2235L55.1243 13.3048C53.8166 13.943 52.7295 14.9815 52.0627 16.2284L51.9626 16.4155ZM53.8012 17.5752C55.1251 18.4211 56.6544 18.8671 58.232 18.8671C59.8093 18.8671 61.3388 18.4208 62.6627 17.5752C61.9366 15.8637 60.1718 14.722 58.232 14.722C56.2923 14.722 54.5269 15.8637 53.8012 17.5752ZM58.232 19.1577C56.5568 19.1577 54.9339 18.6719 53.5386 17.7525L53.4405 17.6877L53.4835 17.5787C54.2231 15.696 56.1313 14.4314 58.232 14.4314C60.3324 14.4314 62.2404 15.696 62.9803 17.5787L63.0232 17.6877L62.9248 17.7525C61.53 18.6719 59.9073 19.1577 58.232 19.1577ZM58.232 0.475147C52.5209 0.475147 47.8743 5.07939 47.8743 10.739C47.8743 13.8427 49.2747 16.7485 51.7169 18.712C51.7643 18.7561 51.8065 18.7898 51.8517 18.8198C53.6975 20.2503 55.9007 21.0032 58.232 21.0032C60.5632 21.0032 62.7662 20.2503 64.603 18.8259C64.657 18.7898 64.699 18.7564 64.7377 18.7198C67.1888 16.7485 68.5896 13.8424 68.5896 10.739C68.5896 5.07939 63.9434 0.475147 58.232 0.475147ZM58.232 21.2938C55.8345 21.2938 53.569 20.5197 51.6796 19.0548C51.6298 19.0217 51.5743 18.9781 51.5234 18.9299C49.0211 16.9188 47.5811 13.9305 47.5811 10.739C47.5811 4.91928 52.3591 0.18457 58.232 0.18457C64.1048 0.18457 68.8828 4.91928 68.8828 10.739C68.8828 13.9305 67.4425 16.9188 64.9316 18.9374C64.8895 18.9781 64.8342 19.0217 64.7749 19.0612C62.8949 20.5193 60.6294 21.2938 58.232 21.2938Z" fill="#00264E"/>
<path fill-rule="evenodd" clip-rule="evenodd" d="M49.3412 56.3679C49.3412 51.8062 53.0864 48.0946 57.6902 48.0946C62.2938 48.0946 66.0388 51.8062 66.0388 56.3679C66.0388 58.4403 65.2641 60.3358 63.9888 61.789C63.2522 60.4114 62.0453 59.3163 60.5967 58.6801C61.0889 58.0368 61.3811 57.2357 61.3811 56.3679C61.3811 54.252 59.644 52.5306 57.5084 52.5306C55.3729 52.5306 53.6359 54.252 53.6359 56.3679C53.6359 57.2917 53.967 58.1401 54.5176 58.8031C53.1876 59.4524 52.0824 60.4965 51.3912 61.789C50.1159 60.3358 49.3412 58.4407 49.3412 56.3679ZM57.5086 58.0696C56.5618 58.0696 55.7915 57.3063 55.7915 56.3679C55.7915 55.4299 56.5618 54.6665 57.5086 54.6665C58.4555 54.6665 59.2259 55.4297 59.2259 56.3679C59.2259 57.3063 58.4551 58.0696 57.5086 58.0696ZM53.0785 63.2602C53.7871 61.4559 55.6252 60.2053 57.6902 60.2053C59.7549 60.2053 61.5931 61.4559 62.3019 63.2602C60.9794 64.132 59.3938 64.6413 57.6902 64.6413C55.9862 64.6413 54.4006 64.132 53.0785 63.2602ZM51.2284 64.5694C53.0117 65.9518 55.2554 66.777 57.6902 66.777C60.1246 66.777 62.3685 65.9518 64.1516 64.569C64.2038 64.5348 64.2525 64.4961 64.2973 64.4537C66.6729 62.5437 68.1945 59.6285 68.1945 56.3679C68.1945 50.6281 63.4822 45.9585 57.6902 45.9585C51.898 45.9585 47.1855 50.6285 47.1855 56.3679C47.1855 59.6289 48.7069 62.5437 51.0827 64.4537C51.1277 64.4961 51.1762 64.5348 51.2284 64.5694Z" fill="#00264E"/>
<path fill-rule="evenodd" clip-rule="evenodd" d="M57.5084 54.8119C56.6424 54.8119 55.9381 55.5098 55.9381 56.3678C55.9381 57.2263 56.6424 57.9242 57.5084 57.9242C58.3743 57.9242 59.0786 57.2263 59.0786 56.3678C59.0786 55.5098 58.3743 54.8119 57.5084 54.8119ZM57.5084 58.2148C56.4806 58.2148 55.6448 57.3864 55.6448 56.3678C55.6448 55.3497 56.4806 54.5213 57.5084 54.5213C58.5361 54.5213 59.3718 55.3497 59.3718 56.3678C59.3718 57.3864 58.5361 58.2148 57.5084 58.2148ZM57.6898 48.24C53.167 48.24 49.4876 51.8863 49.4876 56.3678C49.4876 58.2525 50.1528 60.079 51.3654 61.5343C52.0374 60.3678 53.0661 59.3905 54.2918 58.7535C53.7731 58.0674 53.489 57.227 53.489 56.3678C53.489 54.1718 55.2921 52.3852 57.5084 52.3852C59.7246 52.3852 61.5275 54.1718 61.5275 56.3678C61.5275 57.1809 61.2834 57.9564 60.8202 58.6217C62.1681 59.2534 63.2911 60.2776 64.0145 61.5341C65.2269 60.0788 65.8923 58.2525 65.8923 56.3678C65.8923 51.8863 62.2127 48.24 57.6898 48.24ZM51.4206 62.0444L51.2806 61.8846C49.9353 60.3515 49.1943 58.3924 49.1943 56.3678C49.1943 51.7258 53.0058 47.9494 57.6898 47.9494C62.3743 47.9494 66.1854 51.7258 66.1854 56.3678C66.1854 58.3924 65.4444 60.3511 64.0993 61.8842L63.9591 62.044L63.8592 61.8569C63.145 60.5209 61.9649 59.4398 60.5371 58.8128L60.3678 58.7384L60.4798 58.5922C60.9733 57.9466 61.2342 57.1773 61.2342 56.3678C61.2342 54.3321 59.5628 52.6758 57.5084 52.6758C55.4537 52.6758 53.7822 54.3321 53.7822 56.3678C53.7822 57.2198 54.0834 58.0521 54.6308 58.7105L54.7484 58.8523L54.5823 58.9335C53.2746 59.5719 52.1873 60.6103 51.5205 61.8573L51.4206 62.0444ZM53.2594 63.204C54.5827 64.0497 56.1124 64.4961 57.6898 64.4961C59.2671 64.4961 60.7966 64.0497 62.1207 63.204C61.3946 61.4925 59.6296 60.3509 57.6898 60.3509C55.7501 60.3509 53.9849 61.4925 53.2594 63.204ZM57.6898 64.7865C56.0144 64.7865 54.3915 64.3004 52.9969 63.3814L52.8987 63.3166L52.9417 63.2075C53.6807 61.3252 55.5891 60.0603 57.6898 60.0603C59.7904 60.0603 61.6984 61.3249 62.4382 63.2075L62.481 63.3166L62.3828 63.3814C60.988 64.3008 59.3651 64.7865 57.6898 64.7865ZM57.6898 46.1041C51.9789 46.1041 47.3323 50.7082 47.3323 56.3678C47.3323 59.4713 48.7327 62.3774 51.1751 64.3408C51.2225 64.3852 51.2645 64.4186 51.3093 64.4483C53.1553 65.8789 55.3587 66.6318 57.6898 66.6318C60.0208 66.6318 62.2242 65.8789 64.0616 64.4548C64.1152 64.4184 64.1572 64.385 64.1961 64.3483C66.647 62.3774 68.0476 59.4713 68.0476 56.3678C68.0476 50.7082 63.4012 46.1041 57.6898 46.1041ZM57.6898 66.9224C55.2923 66.9224 53.0268 66.1483 51.1376 64.6835C51.0877 64.6505 51.0319 64.6067 50.9812 64.5585C48.4791 62.5478 47.0391 59.5591 47.0391 56.3678C47.0391 50.5481 51.8169 45.8135 57.6898 45.8135C63.5628 45.8135 68.3408 50.5481 68.3408 56.3678C68.3408 59.5591 66.9008 62.5478 64.3898 64.5664C64.3472 64.6071 64.2924 64.6509 64.2332 64.69C62.3529 66.1483 60.087 66.9224 57.6898 66.9224Z" fill="#00264E"/>
<path fill-rule="evenodd" clip-rule="evenodd" d="M3.02469 56.3679C3.02469 51.8062 6.76989 48.0946 11.3737 48.0946C15.9772 48.0946 19.7224 51.8062 19.7224 56.3679C19.7224 58.4403 18.9476 60.3358 17.6724 61.789C16.9357 60.4114 15.7288 59.3163 14.2802 58.6801C14.7723 58.0368 15.0646 57.2357 15.0646 56.3679C15.0646 54.252 13.3275 52.5306 11.1919 52.5306C9.05654 52.5306 7.31941 54.252 7.31941 56.3679C7.31941 57.2917 7.65047 58.1401 8.20118 58.8031C6.87107 59.4524 5.76586 60.4965 5.07471 61.789C3.79944 60.3358 3.02469 58.4407 3.02469 56.3679ZM11.1922 58.0696C10.2453 58.0696 9.47499 57.3063 9.47499 56.3679C9.47499 55.4299 10.2453 54.6665 11.1922 54.6665C12.139 54.6665 12.9093 55.4297 12.9093 56.3679C12.9093 57.3063 12.1387 58.0696 11.1922 58.0696ZM6.76198 63.2602C7.47073 61.4559 9.30871 60.2053 11.3737 60.2053C13.4383 60.2053 15.2766 61.4559 15.9854 63.2602C14.6629 64.132 13.0774 64.6413 11.3737 64.6413C9.66969 64.6413 8.08418 64.132 6.76198 63.2602ZM4.91196 64.5694C6.69512 65.9518 8.93894 66.777 11.3737 66.777C13.8081 66.777 16.0519 65.9518 17.8351 64.569C17.8873 64.5348 17.936 64.4961 17.9808 64.4537C20.3564 62.5437 21.878 59.6285 21.878 56.3679C21.878 50.6281 17.1656 45.9585 11.3737 45.9585C5.58142 45.9585 0.869141 50.6285 0.869141 56.3679C0.869141 59.6289 2.39043 62.5437 4.76623 64.4537C4.81108 64.4961 4.85976 64.5348 4.91196 64.5694Z" fill="#00264E"/>
<path fill-rule="evenodd" clip-rule="evenodd" d="M11.191 54.8119C10.3251 54.8119 9.62078 55.5098 9.62078 56.3678C9.62078 57.2263 10.3251 57.9242 11.191 57.9242C12.057 57.9242 12.7616 57.2263 12.7616 56.3678C12.7616 55.5098 12.057 54.8119 11.191 54.8119ZM11.191 58.2148C10.1633 58.2148 9.32753 57.3864 9.32753 56.3678C9.32753 55.3497 10.1633 54.5213 11.191 54.5213C12.2188 54.5213 13.0548 55.3497 13.0548 56.3678C13.0548 57.3864 12.2188 58.2148 11.191 58.2148ZM11.3726 48.24C6.8497 48.24 3.17019 51.8863 3.17019 56.3678C3.17019 58.2525 3.83555 60.079 5.04807 61.5343C5.72016 60.3678 6.74884 59.3905 7.97456 58.7535C7.45583 58.0674 7.17198 57.2274 7.17198 56.3678C7.17198 54.1718 8.97478 52.3852 11.191 52.3852C13.4073 52.3852 15.2101 54.1718 15.2101 56.3678C15.2101 57.1809 14.9661 57.9562 14.5028 58.6217C15.8508 59.2534 16.9739 60.2776 17.697 61.5341C18.9096 60.0792 19.5749 58.2529 19.5749 56.3678C19.5749 51.8863 15.8954 48.24 11.3726 48.24ZM5.10321 62.0444L4.96332 61.8846C3.61796 60.3515 2.87696 58.3924 2.87696 56.3678C2.87696 51.7258 6.68842 47.9494 11.3726 47.9494C16.057 47.9494 19.8682 51.7258 19.8682 56.3678C19.8682 58.3926 19.1271 60.3517 17.7821 61.8842L17.6419 62.044L17.5419 61.8569C16.8276 60.5209 15.6479 59.4398 14.2201 58.8128L14.051 58.7384L14.1627 58.5922C14.6559 57.9466 14.9169 57.1773 14.9169 56.3678C14.9169 54.3321 13.2454 52.6758 11.191 52.6758C9.13663 52.6758 7.46521 54.3321 7.46521 56.3678C7.46521 57.2202 7.76635 58.0521 8.31353 58.7105L8.43113 58.8523L8.26485 58.9335C6.95732 59.5719 5.87002 60.6103 5.2032 61.8573L5.10321 62.0444ZM6.94208 63.204C8.26575 64.0497 9.79525 64.4961 11.3726 64.4961C12.9505 64.4961 14.4797 64.0498 15.8033 63.204C15.0776 61.4925 13.3123 60.3509 11.3726 60.3509C9.43282 60.3509 7.66783 61.4925 6.94208 63.204ZM11.3726 64.7865C9.6973 64.7865 8.07455 64.3004 6.67964 63.3814L6.58139 63.3166L6.6245 63.2075C7.36405 61.3249 9.27212 60.0603 11.3726 60.0603C13.4733 60.0603 15.3817 61.3252 16.1209 63.2075L16.1637 63.3166L16.0655 63.3814C14.6709 64.3008 13.0481 64.7865 11.3726 64.7865ZM11.3726 46.1041C5.66151 46.1041 1.01491 50.7082 1.01491 56.3678C1.01491 59.4713 2.41542 62.3774 4.85776 64.3408C4.90527 64.385 4.9472 64.4184 4.99207 64.4483C6.83798 65.8789 9.04134 66.6318 11.3726 66.6318C13.7035 66.6318 15.9068 65.8789 17.7442 64.4548C17.7979 64.4184 17.8399 64.385 17.8789 64.3483C20.3298 62.3774 21.7302 59.4713 21.7302 56.3678C21.7302 50.7082 17.0839 46.1041 11.3726 46.1041ZM11.3726 66.9224C8.97508 66.9224 6.70954 66.1483 4.82023 64.6835C4.77038 64.6509 4.71526 64.6071 4.66422 64.5587C2.16176 62.5476 0.72168 59.5591 0.72168 56.3678C0.72168 50.5481 5.49966 45.8135 11.3726 45.8135C17.2455 45.8135 22.0234 50.5481 22.0234 56.3678C22.0234 59.5591 20.5834 62.5478 18.0724 64.5664C18.0299 64.6071 17.975 64.6509 17.9158 64.69C16.0356 66.1483 13.7697 66.9224 11.3726 66.9224Z" fill="#00264E"/>
<path fill-rule="evenodd" clip-rule="evenodd" d="M2.48272 11.2757C2.48272 6.71385 6.22792 3.00226 10.8317 3.00226C15.4352 3.00226 19.1804 6.71385 19.1804 11.2757C19.1804 13.3481 18.4056 15.2435 17.1304 16.6967C16.3938 15.3191 15.1868 14.2239 13.7382 13.5878C14.2303 12.9445 14.5226 12.1433 14.5226 11.2757C14.5226 9.15966 12.7855 7.43827 10.6499 7.43827C8.51455 7.43827 6.77744 9.15966 6.77744 11.2757C6.77744 12.1994 7.1085 13.0479 7.65919 13.7107C6.32908 14.3602 5.22387 15.4042 4.53272 16.6967C3.25745 15.2435 2.48272 13.3484 2.48272 11.2757ZM10.6502 12.9773C9.70334 12.9773 8.933 12.2139 8.933 11.2757C8.933 10.3377 9.70334 9.57431 10.6502 9.57431C11.597 9.57431 12.3674 10.3374 12.3674 11.2757C12.3674 12.2139 11.5968 12.9773 10.6502 12.9773ZM6.21999 18.1679C6.92874 16.3637 8.76674 15.1131 10.8317 15.1131C12.8964 15.1131 14.7346 16.3637 15.4434 18.1679C14.1209 19.0397 12.5354 19.5491 10.8317 19.5491C9.1277 19.5491 7.54219 19.0397 6.21999 18.1679ZM4.36997 19.477C6.15315 20.8595 8.39698 21.6847 10.8317 21.6847C13.2661 21.6847 15.51 20.8595 17.2934 19.4767C17.3453 19.4424 17.394 19.4038 17.4389 19.3613C19.8144 17.4514 21.3359 14.5363 21.3359 11.2757C21.3359 5.53582 16.6237 0.866211 10.8317 0.866211C5.03943 0.866211 0.327148 5.53612 0.327148 11.2757C0.327148 14.5366 1.84846 17.4514 4.22424 19.3613C4.26911 19.4038 4.31779 19.4424 4.36997 19.477Z" fill="#00264E"/>
<path fill-rule="evenodd" clip-rule="evenodd" d="M10.6503 9.71959C9.78439 9.71959 9.07973 10.4179 9.07973 11.2759C9.07973 12.134 9.78439 12.832 10.6503 12.832C11.5162 12.832 12.2206 12.134 12.2206 11.2759C12.2206 10.4179 11.5162 9.71959 10.6503 9.71959ZM10.6503 13.1226C9.62251 13.1226 8.7865 12.2941 8.7865 11.2759C8.7865 10.2575 9.62251 9.42901 10.6503 9.42901C11.6781 9.42901 12.5138 10.2575 12.5138 11.2759C12.5138 12.2941 11.6781 13.1226 10.6503 13.1226ZM10.8315 3.14783C6.30867 3.14783 2.62916 6.79403 2.62916 11.2757C2.62916 13.1606 3.29452 14.987 4.50704 16.4422C5.17973 15.2752 6.20838 14.298 7.43383 13.6616C6.91508 12.9756 6.63095 12.1352 6.63095 11.2757C6.63095 9.07973 8.43375 7.29297 10.65 7.29297C12.8663 7.29297 14.6694 9.07973 14.6694 11.2757C14.6694 12.089 14.4254 12.8643 13.9621 13.5297C15.3095 14.1611 16.4329 15.1854 17.1563 16.4419C18.3685 14.987 19.0339 13.1609 19.0339 11.2757C19.0339 6.79403 15.3544 3.14783 10.8315 3.14783ZM17.1009 16.9521L17.0009 16.765C16.2866 15.4286 15.1066 14.3477 13.6791 13.7209L13.5096 13.6465L13.6217 13.5003C14.1152 12.8547 14.3761 12.0855 14.3761 11.2757C14.3761 9.23984 12.7047 7.58355 10.65 7.58355C8.5956 7.58355 6.92418 9.23984 6.92418 11.2757C6.92418 12.1282 7.22532 12.9602 7.7728 13.6186L7.89038 13.7601L7.72412 13.8415C6.41659 14.4793 5.32927 15.5178 4.66217 16.765L4.56218 16.9521L4.42229 16.7923C3.07693 15.2592 2.33593 13.3004 2.33593 11.2757C2.33593 6.63364 6.14739 2.85726 10.8315 2.85726C15.5159 2.85726 19.3271 6.63364 19.3271 11.2757C19.3271 13.3004 18.5861 15.2595 17.241 16.7923L17.1009 16.9521ZM6.40105 18.1118C7.7247 18.9574 9.25392 19.4038 10.8315 19.4041C12.4091 19.4041 13.9383 18.9577 15.2626 18.1118C14.5365 16.4003 12.7713 15.2586 10.8315 15.2586C8.89207 15.2586 7.1268 16.4003 6.40105 18.1118ZM10.8315 19.6947C9.15627 19.6943 7.53352 19.2082 6.13861 18.2891L6.04036 18.2243L6.08347 18.1153C6.82302 16.233 8.73108 14.968 10.8315 14.968C12.9323 14.968 14.8403 16.233 15.5802 18.1153L15.623 18.2243L15.5248 18.2891C14.1295 19.2085 12.5068 19.6947 10.8315 19.6947ZM10.8315 1.01179C5.12048 1.01179 0.473893 5.61632 0.473893 11.2757C0.473893 14.3791 1.8744 17.2852 4.31673 19.2486C4.36424 19.2928 4.40647 19.3265 4.45132 19.3561C6.29695 20.787 8.50031 21.5399 10.8315 21.5399C13.1627 21.5399 15.3661 20.787 17.2029 19.3625C17.2569 19.3265 17.2991 19.2928 17.3375 19.2564C19.7887 17.2852 21.1893 14.3791 21.1893 11.2757C21.1893 5.61603 16.5429 1.01179 10.8315 1.01179ZM10.8315 21.8305C8.43405 21.8305 6.16851 21.0563 4.27949 19.5915C4.22965 19.5586 4.17451 19.5148 4.12349 19.4668C1.62074 17.4554 0.180664 14.4671 0.180664 11.2757C0.180664 5.45591 4.95863 0.721191 10.8315 0.721191C16.7044 0.721191 21.4823 5.45591 21.4823 11.2757C21.4823 14.4671 20.0424 17.4554 17.5313 19.4744C17.4891 19.5148 17.434 19.5586 17.3745 19.5979C15.4948 21.0559 13.229 21.8305 10.8315 21.8305Z" fill="#00264E"/>
<path fill-rule="evenodd" clip-rule="evenodd" d="M47.552 26.1209C47.117 26.5537 46.5374 26.8267 45.9206 26.8267H45.9156C45.3006 26.8267 44.7224 26.5262 44.2864 26.0965C43.8492 25.6649 43.6077 25.2316 43.6063 24.6206C43.6039 23.359 44.6376 22.4679 45.9109 22.4679H45.9156C47.1868 22.4679 48.2222 23.3737 48.2248 24.6337C48.2261 25.2448 47.9872 25.6876 47.552 26.1209ZM39.6307 52.1071V42.5522C40.5104 42.4677 41.2355 42.2481 41.8216 41.813L41.9668 52.1071H39.6307ZM38.7509 30.915C38.2894 30.915 37.8712 31.286 37.8712 31.7436V52.1071H35.5254V41.9667C35.5254 41.5095 35.1072 41.1383 34.6456 41.1383C34.184 41.1383 33.7659 41.5095 33.7659 41.9667V52.1071H31.7133V31.7436C31.7133 31.286 31.4417 30.915 30.9803 30.915C30.5187 30.915 30.2471 31.286 30.2471 31.7436V40.8982C29.0743 40.7355 27.9013 39.7392 27.9013 38.5373V37.9695V31.4986C27.9013 30.651 28.2528 29.8255 28.5833 29.0453C28.5841 29.0437 28.6765 29.0424 28.6771 29.0406C29.7284 26.5659 32.2558 24.9672 35.046 24.9672C37.8496 24.9672 40.243 26.5767 41.2875 29.0679C41.6115 29.8411 41.6832 30.6588 41.6832 31.4986V38.5373C41.6832 39.6981 40.8035 40.6674 39.6307 40.8788V31.7436C39.6307 31.286 39.2125 30.915 38.7509 30.915ZM30.2471 52.1071H27.9013V41.7682C28.781 42.2133 29.3673 42.4986 30.2471 42.5636V52.1071ZM34.8604 17.898C36.3661 17.898 37.5908 19.1121 37.5908 20.6041C37.5908 22.0966 36.3661 23.3106 34.8604 23.3106C33.3545 23.3106 32.1293 22.0966 32.1293 20.6041C32.1293 19.1121 33.3545 17.898 34.8604 17.898ZM23.8921 26.6987C22.619 26.6987 21.583 25.6725 21.583 24.4105C21.583 23.1487 22.619 22.1221 23.8921 22.1221C25.1655 22.1221 26.2015 23.1487 26.2015 24.4105C26.2015 25.6725 25.1655 26.6987 23.8921 26.6987ZM53.7297 33.9984C53.7255 32.0387 52.9289 30.2008 51.4868 28.8207C50.704 28.0721 49.7818 27.5096 48.7775 27.1514C49.5015 26.4097 49.8992 25.5658 49.8968 24.5318C49.8921 22.3591 48.1072 20.7245 45.9158 20.7245H45.9071C43.7118 20.7245 41.9299 22.3736 41.9347 24.5488C41.9368 25.6024 42.353 26.5276 43.1067 27.2713C43.1313 27.2957 43.157 27.2864 43.1822 27.3102C42.9667 27.3982 42.7557 27.4805 42.5483 27.588C41.5282 25.7812 39.8629 24.4294 37.8926 23.7712C38.7357 22.9758 39.2629 21.8502 39.2629 20.6082C39.2629 18.2026 37.2881 16.2432 34.8604 16.2432C32.4323 16.2432 30.4575 18.1993 30.4575 20.6053C30.4575 21.9109 31.0398 23.0829 31.96 23.8832C30.1434 24.574 28.6109 25.8578 27.6477 27.5509C27.355 27.4006 27.0535 27.2699 26.7447 27.1585C27.4423 26.4478 27.8733 25.4784 27.8733 24.4105C27.8733 22.2353 26.0873 20.4654 23.8921 20.4654C21.697 20.4654 19.911 22.2353 19.911 24.4105C19.911 25.536 20.2221 26.5518 20.987 27.2709C18.2591 28.3812 16.1719 30.9869 16.1719 34.0169V37.7168C16.1719 38.1744 16.59 38.5452 17.0516 38.5452C17.5131 38.5452 17.9313 38.1744 17.9313 37.7168V34.0169C17.9313 30.8954 20.7096 28.3557 23.9724 28.3557C24.9916 28.3557 25.9562 28.6024 26.8342 29.0728C26.5824 29.8556 26.435 30.6686 26.435 31.4986V37.9693V38.5373V52.1071H21.4502V34.2326C21.4502 33.7754 21.032 33.4042 20.5704 33.4042C20.1088 33.4042 19.6907 33.7754 19.6907 34.2326V52.1071H19.506C19.8271 52.3977 20.0962 52.9789 20.3083 53.8506H20.7199H48.3033C48.8168 52.6883 49.5667 51.4151 50.4974 50.4936L50.4625 34.3363C50.4615 33.8793 50.0874 33.51 49.6264 33.51H49.6246C49.1632 33.51 48.7894 33.8953 48.7904 34.3527L48.8289 52.1071H43.6386L43.5286 32.6502C43.5286 32.6004 43.4427 32.4831 43.4427 32.436V31.4986C43.4427 30.6775 43.3894 29.9804 43.1428 29.2054C44.0281 28.7207 45.0954 28.5702 46.1284 28.5702H46.1419C47.7221 28.5702 49.2074 29.0516 50.3253 30.1212C51.4392 31.1872 52.0545 32.5507 52.0578 34.0591L52.0711 37.8371C52.0729 38.2935 52.4468 38.7405 52.907 38.7405H52.91C53.372 38.7405 53.745 38.2618 53.7432 37.8042L53.7297 33.9984Z" fill="#00264E"/>
<path fill-rule="evenodd" clip-rule="evenodd" d="M34.8602 18.0434C33.4354 18.0434 32.2759 19.1923 32.2759 20.6043C32.2759 22.0164 33.4354 23.1652 34.8602 23.1652C36.285 23.1652 37.4445 22.0164 37.4445 20.6043C37.4445 19.1923 36.285 18.0434 34.8602 18.0434ZM34.8602 23.4556C33.2736 23.4556 31.9826 22.1765 31.9826 20.6043C31.9826 19.0319 33.2736 17.7528 34.8602 17.7528C36.4466 17.7528 37.7378 19.0319 37.7378 20.6043C37.7378 22.1765 36.4466 23.4556 34.8602 23.4556ZM45.9107 22.3938C45.307 22.3938 44.7508 22.6162 44.3444 23.0198C43.9619 23.4 43.7517 23.9097 43.7529 24.4555C43.7541 25.0025 43.9567 25.4564 44.3896 25.8837C44.773 26.2621 45.3006 26.462 45.9155 26.462C46.5646 26.462 47.0788 26.2761 47.448 25.9085C47.8731 25.4856 48.0793 25.0147 48.0781 24.4692C48.0755 23.3055 47.1256 22.3938 45.9155 22.3938H45.9107ZM45.9204 26.7526C45.2213 26.7526 44.6223 26.5233 44.1828 26.0894C43.6978 25.6106 43.461 25.0766 43.4596 24.4561C43.4585 23.8326 43.699 23.2497 44.1368 22.8147C44.5989 22.3559 45.2287 22.1034 45.9107 22.1034H45.9155C47.2895 22.1034 48.3682 23.1424 48.3713 24.4687C48.3725 25.0952 48.1386 25.6334 47.6558 26.1136C47.2297 26.5376 46.6455 26.7526 45.9204 26.7526ZM23.892 22.2675C22.6996 22.2675 21.7294 23.2291 21.7294 24.4105C21.7294 25.5923 22.6996 26.5535 23.892 26.5535C25.0844 26.5535 26.0548 25.5923 26.0548 24.4105C26.0548 23.2291 25.0844 22.2675 23.892 22.2675ZM23.892 26.8441C22.538 26.8441 21.4361 25.7525 21.4361 24.4105C21.4361 23.0687 22.538 21.9769 23.892 21.9769C25.2462 21.9769 26.3478 23.0687 26.3478 24.4105C26.3478 25.7525 25.2462 26.8441 23.892 26.8441ZM28.2882 51.7426H30.3409V42.6964C29.5934 42.62 29.0382 42.3795 28.2882 42.0048V51.7426ZM30.6342 52.0332H27.9949V41.5313L28.2083 41.6391C29.1116 42.0956 29.6636 42.3571 30.4983 42.4186L30.6342 42.4286V52.0332ZM35.9123 51.7426H37.965V31.7436C37.965 31.216 38.4347 30.7698 38.9913 30.7698C39.5477 30.7698 40.0176 31.216 40.0176 31.7436V40.6984C41.0472 40.4369 41.7771 39.5533 41.7771 38.5371V31.4987C41.7771 30.6981 41.6119 29.899 41.2871 29.1237C40.2656 26.6873 37.8274 25.1125 35.0757 25.1125C32.3358 25.1125 29.9007 26.6765 28.8723 29.097L28.8384 29.1765L28.8059 29.1801C28.4569 30.0265 28.2882 30.7838 28.2882 31.4987V38.5373C28.2882 39.6203 29.3198 40.5092 30.3409 40.7251V31.7434C30.3409 31.17 30.7024 30.7696 31.2207 30.7696C31.7384 30.7696 32.1002 31.17 32.1002 31.7434V51.7426H33.8597V41.9669C33.8597 41.4391 34.3294 40.9931 34.886 40.9931C35.4424 40.9931 35.9123 41.4391 35.9123 41.9669V51.7426ZM38.2583 52.0332H35.619V41.9669C35.619 41.603 35.2766 41.2837 34.886 41.2837C34.4954 41.2837 34.153 41.603 34.153 41.9669V52.0332H31.807V31.7434C31.807 31.4033 31.6257 31.0602 31.2207 31.0602C30.8154 31.0602 30.6342 31.4033 30.6342 31.7434V41.0654L30.4672 41.0422C29.2782 40.8774 27.9949 39.873 27.9949 38.5373V31.4987C27.9949 30.7205 28.1827 29.9 28.5683 28.9893L28.602 28.9093L28.6365 28.9056C29.736 26.4176 32.2511 24.8219 35.0757 24.8219C37.9462 24.8219 40.4907 26.4667 41.558 29.0121C41.8978 29.8232 42.0703 30.6594 42.0703 31.4987V38.5371C42.0703 39.75 41.1565 40.7947 39.8974 41.0216L39.7243 41.053V31.7436C39.7243 31.3799 39.3819 31.0604 38.9913 31.0604C38.6007 31.0604 38.2583 31.3799 38.2583 31.7436V52.0332ZM40.0176 51.7426H41.8195L41.7955 41.9865C41.3316 42.3038 40.7829 42.5848 40.0176 42.6819V51.7426ZM42.1134 52.0332H39.7243V42.4203L39.857 42.4076C40.7569 42.3211 41.3486 41.9619 41.8538 41.5867L42.0876 41.4132L42.1134 52.0332ZM20.4121 53.4859H48.208C48.7552 52.2741 49.4942 51.1834 50.3507 50.324L50.3158 34.1721C50.3148 33.7801 49.9922 33.436 49.626 33.436C49.4448 33.436 49.2747 33.5068 49.1448 33.6359C49.0106 33.7695 48.9366 33.9459 48.937 34.133L48.9753 52.0332H43.492L43.5021 32.5403C43.5021 32.4817 43.5229 32.4413 43.5364 32.4189V31.4987C43.5364 30.7847 43.4014 30.013 43.123 29.1394L43.0869 29.0258L43.1916 28.9687C44.1294 28.4551 45.0903 28.2055 46.1284 28.2055C47.7585 28.2055 49.2802 28.8099 50.4269 29.9069C51.5695 31.0007 52.2012 32.4556 52.2042 34.0041L52.2177 37.6993C52.2191 38.0724 52.5282 38.3758 52.9067 38.3758C53.0951 38.3758 53.2678 38.3048 53.3974 38.1762C53.5263 38.0478 53.5967 37.8769 53.5965 37.695L53.5832 33.9992C53.5789 32.0795 52.7982 30.2776 51.3845 28.9252C50.6222 28.1957 49.7281 27.6448 48.7278 27.2882L48.5141 27.2119L48.6721 27.0504C49.3794 26.3258 49.7521 25.4169 49.7498 24.4221C49.7458 22.3425 48.0253 20.6504 45.9155 20.6504C44.8809 20.6504 43.9177 21.046 43.1944 21.7643C42.4744 22.4793 42.0791 23.4289 42.0812 24.4388C42.0834 25.4473 42.4841 26.3975 43.2098 27.1133C43.2201 27.1233 43.2306 27.1318 43.2409 27.1406C43.2552 27.1524 43.2693 27.1644 43.2834 27.1777L43.4464 27.3318L43.238 27.4172C43.0115 27.5096 42.8081 27.6031 42.6164 27.7031L42.4903 27.7691L42.4201 27.6454C41.4263 25.8849 39.8015 24.5555 37.8453 23.902L37.6151 23.825L37.7911 23.6592C38.6455 22.8534 39.1162 21.7686 39.1162 20.6049C39.1162 18.279 37.207 16.3868 34.8602 16.3868C32.5132 16.3868 30.6036 18.2787 30.6036 20.6043C30.6036 21.8154 31.1332 22.9705 32.0564 23.7733L32.239 23.9319L32.0124 24.0183C30.2124 24.7029 28.7079 25.9829 27.775 27.622L27.7056 27.744L27.5801 27.6796C27.2936 27.5328 26.996 27.4033 26.6944 27.2948L26.4817 27.2184L26.6397 27.0571C27.3402 26.3429 27.7264 25.4029 27.7264 24.4105C27.7264 22.3152 26.0062 20.6106 23.892 20.6106C21.7778 20.6106 20.0577 22.3152 20.0577 24.4105C20.0577 25.4894 20.4662 26.4679 21.2081 27.1656L21.3725 27.3202L21.1633 27.4053C18.3661 28.5437 16.5589 31.1386 16.5589 34.0168V37.7168C16.5589 38.0807 16.9014 38.3999 17.292 38.3999C17.6825 38.3999 18.025 38.0807 18.025 37.7168V34.0168C18.025 30.8152 20.7467 28.2104 24.0923 28.2104C25.153 28.2104 26.1872 28.4645 27.0842 28.9451L27.1913 29.0023L27.1542 29.117C26.9306 29.8112 26.8221 30.5902 26.8221 31.4987V52.0332H21.5438V34.2328C21.5438 33.8689 21.2014 33.5496 20.8108 33.5496C20.4202 33.5496 20.0778 33.8689 20.0778 34.2328V52.0332H19.7563C20.0125 52.4992 20.2324 52.9861 20.4121 53.4859ZM48.3991 53.7765H20.2035L20.1692 53.6787C19.9624 53.0836 19.6968 52.5055 19.3792 51.9605L19.2519 51.7426H19.7844V34.2328C19.7844 33.705 20.2542 33.259 20.8108 33.259C21.3669 33.259 21.8371 33.705 21.8371 34.2328V51.7426H26.5289V31.4987C26.5289 30.6101 26.6304 29.8385 26.8388 29.1453C26.0183 28.7292 25.0479 28.501 24.0923 28.501C20.9087 28.501 18.3183 30.9753 18.3183 34.0168V37.7168C18.3183 38.2445 17.8482 38.6905 17.292 38.6905C16.7354 38.6905 16.2656 38.2445 16.2656 37.7168V34.0168C16.2656 31.0901 18.0582 28.4456 20.8508 27.2214C20.1485 26.482 19.7645 25.4923 19.7645 24.4105C19.7645 22.1551 21.616 20.32 23.892 20.32C26.1678 20.32 28.0197 22.1551 28.0197 24.4105C28.0197 25.4061 27.659 26.3525 26.9996 27.0989C27.1992 27.1771 27.3965 27.264 27.5894 27.3587C28.5211 25.7847 29.9668 24.5425 31.6894 23.8332C30.8104 22.985 30.3104 21.8213 30.3104 20.6043C30.3104 18.1186 32.3512 16.0962 34.8602 16.0962C37.3688 16.0962 39.4095 18.1186 39.4095 20.6049C39.4095 21.7706 38.9675 22.8624 38.1605 23.7038C40.042 24.3885 41.6101 25.6851 42.6061 27.3817C42.7068 27.332 42.8113 27.2834 42.9203 27.2355C42.1915 26.4751 41.7902 25.4868 41.788 24.4394C41.7856 23.3519 42.2113 22.3292 42.9866 21.5592C43.7654 20.7858 44.8024 20.3598 45.907 20.3598C48.1865 20.3598 50.0386 22.182 50.043 24.4215C50.0454 25.4055 49.6877 26.3454 49.0322 27.0911C49.9895 27.4622 50.8482 28.0083 51.5884 28.716C53.0592 30.1236 53.8721 31.9996 53.8765 33.9982L53.8898 37.6938C53.8904 37.9535 53.7896 38.1978 53.605 38.3811C53.4198 38.5652 53.1734 38.6664 52.9103 38.6664C52.3672 38.6664 51.9264 38.2331 51.9244 37.7005L51.911 34.0049C51.908 32.5354 51.3086 31.1547 50.223 30.1161C49.1317 29.0714 47.6821 28.4961 46.1419 28.4961C45.1801 28.4961 44.2985 28.7158 43.4384 29.1665C43.7015 30.0222 43.8296 30.7861 43.8296 31.4987V32.4362C43.8296 32.5 43.8039 32.5421 43.7916 32.5621L43.785 51.7426H48.6816L48.6438 34.1336C48.6432 33.8687 48.7473 33.6194 48.9372 33.4307C49.1226 33.2468 49.3669 33.1455 49.6246 33.1455C50.1574 33.1455 50.6075 33.6152 50.6089 34.1715L50.6438 50.4438L50.6011 50.4863C49.7436 51.3351 48.9753 52.4727 48.4376 53.6897L48.3991 53.7765Z" fill="#00264E"/>
</svg>
