<svg width="1152" height="1096" viewBox="0 0 1152 1096" fill="none" xmlns="http://www.w3.org/2000/svg">
<rect width="1152" height="805" transform="translate(0 291)" fill="url(#paint0_linear)"/>
<path d="M135.925 145.744C195.593 255.942 -58.8897 233.104 50.1263 441.36C159.142 649.616 -192.081 448.112 -251.749 337.914C-311.417 227.716 -273.003 95.3646 -165.95 42.2983C-58.897 -10.768 76.2572 35.5463 135.925 145.744Z" fill="#FED06A" fill-opacity="0.63"/>
<path d="M132.526 125.935C139.968 139.679 142.5 151.326 141.471 161.595C140.442 171.863 135.848 180.781 128.987 189.061C122.124 197.344 112.999 204.978 102.92 212.68C99.1146 215.588 95.1707 218.507 91.1627 221.473C84.5666 226.355 77.7965 231.366 71.1814 236.669C49.9012 253.728 30.1262 273.881 22.5114 302.823C14.8958 331.768 19.4552 369.452 46.7259 421.548C60.3474 447.57 66.7635 467.161 67.4738 481.314C67.8287 488.387 66.7577 494.09 64.4604 498.556C62.1648 503.019 58.6375 506.262 54.0514 508.409C44.8653 512.709 31.4171 512.615 15.1274 509.044C-1.15206 505.474 -20.2242 498.441 -40.6236 488.916C-81.4214 469.866 -127.494 440.866 -167.096 409.743C-206.704 378.615 -239.808 345.385 -254.7 317.883C-314.307 207.797 -275.925 75.598 -169.006 22.598C-62.0864 -30.4021 72.9187 15.8486 132.526 125.935Z" stroke="black" stroke-opacity="0.8" stroke-width="0.5"/>
<path opacity="0.8" d="M62.5001 411C208 194.499 825 163.5 940 472" stroke="#151E36" stroke-width="0.5" stroke-dasharray="3 5"/>
<defs>
<linearGradient id="paint0_linear" x1="576" y1="0" x2="576" y2="805" gradientUnits="userSpaceOnUse">
<stop stop-color="#E5E8E9" stop-opacity="0"/>
<stop offset="0.768507" stop-color="#E5E8E9"/>
<stop offset="1" stop-color="white"/>
</linearGradient>
</defs>
</svg>
