<svg width="139" height="60" viewBox="0 0 139 60" fill="none" xmlns="http://www.w3.org/2000/svg">
<g clip-path="url(#clip0)">
<path d="M67.7188 0.276457C61.8137 0.276457 57.0266 4.92607 57.0266 10.6617C57.0266 16.3973 61.8137 21.0469 67.7188 21.0469C73.624 21.0469 78.4111 16.3973 78.4111 10.6617C78.4111 4.92607 73.624 0.276457 67.7188 0.276457Z" fill="#3A4C57" fill-opacity="0.07"/>
<path opacity="0.2" d="M81.9747 14.1234C76.0695 14.1234 71.2824 18.773 71.2824 24.5086C71.2824 30.2442 76.0695 34.8938 81.9747 34.8938C87.8799 34.8938 92.667 30.2442 92.667 24.5086C92.667 18.773 87.8799 14.1234 81.9747 14.1234Z" fill="#151E36"/>
<path d="M98.0128 0.276457C92.1076 0.276457 87.3205 4.92607 87.3205 10.6617C87.3205 16.3973 92.1076 21.0469 98.0128 21.0469C103.918 21.0469 108.705 16.3973 108.705 10.6617C108.705 4.92607 103.918 0.276457 98.0128 0.276457Z" fill="#3A4C57" fill-opacity="0.07"/>
<path opacity="0.2" d="M114.051 14.1234C108.146 14.1234 103.359 18.773 103.359 24.5086C103.359 30.2442 108.146 34.8938 114.051 34.8938C119.956 34.8938 124.743 30.2442 124.743 24.5086C124.743 18.773 119.956 14.1234 114.051 14.1234Z" fill="#151E36"/>
<path d="M128.308 0.276457C122.403 0.276457 117.615 4.92607 117.615 10.6617C117.615 16.3973 122.403 21.0469 128.308 21.0469C134.213 21.0469 139 16.3973 139 10.6617C139 4.92607 134.213 0.276457 128.308 0.276457Z" fill="#3A4C57" fill-opacity="0.07"/>
<path opacity="0.2" d="M24.9483 14.1234C19.0431 14.1234 14.2561 18.773 14.2561 24.5086C14.2561 30.2442 19.0431 34.8938 24.9483 34.8938C30.8535 34.8938 35.6406 30.2442 35.6406 24.5086C35.6406 18.773 30.8535 14.1234 24.9483 14.1234Z" fill="#151E36"/>
<path d="M10.6925 0.276457C4.7873 0.276457 0.000196457 4.92607 0.000196457 10.6617C0.000196457 16.3973 4.7873 21.0469 10.6925 21.0469C16.5977 21.0469 21.3848 16.3973 21.3848 10.6617C21.3848 4.92607 16.5977 0.276457 10.6925 0.276457Z" fill="#3A4C57" fill-opacity="0.07"/>
<path d="M39.2052 0.276457C33.3 0.276457 28.5129 4.92607 28.5129 10.6617C28.5129 16.3973 33.3 21.0469 39.2052 21.0469C45.1104 21.0469 49.8975 16.3973 49.8975 10.6617C49.8975 4.92607 45.1104 0.276457 39.2052 0.276457Z" fill="#3A4C57" fill-opacity="0.07"/>
<path opacity="0.2" d="M54.3532 14.1234C47.9559 14.1234 42.7699 18.773 42.7699 24.5086C42.7699 30.2442 47.9559 34.8938 54.3532 34.8938C60.7505 34.8938 65.9365 30.2442 65.9365 24.5086C65.9365 18.773 60.7505 14.1234 54.3532 14.1234Z" fill="#151E36"/>
<path opacity="0.4" d="M39.2052 27.9703C33.3 27.9703 28.5129 32.6199 28.5129 38.3555C28.5129 44.0911 33.3 48.7407 39.2052 48.7407C45.1104 48.7407 49.8975 44.0911 49.8975 38.3555C49.8975 32.6199 45.1104 27.9703 39.2052 27.9703Z" fill="#151E36"/>
<path d="M67.856 27.5813C58.7992 27.5813 51.4571 34.7125 51.4571 43.5092C51.4571 52.306 58.7992 59.4371 67.856 59.4371C76.9129 59.4371 84.2549 52.306 84.2549 43.5092C84.2549 34.7125 76.9129 27.5813 67.856 27.5813Z" fill="#FED579"/>
<path d="M69.5825 27.7331C60.6119 27.7331 53.3398 34.7963 53.3398 43.5093C53.3398 52.2223 60.6119 59.2855 69.5825 59.2855C78.5531 59.2855 85.8252 52.2223 85.8252 43.5093C85.8252 34.7963 78.5531 27.7331 69.5825 27.7331Z" stroke="black" stroke-width="0.2"/>
<path opacity="0.4" d="M98.904 27.9703C92.5067 27.9703 87.3207 32.6199 87.3207 38.3555C87.3207 44.0911 92.5067 48.7407 98.904 48.7407C105.301 48.7407 110.487 44.0911 110.487 38.3555C110.487 32.6199 105.301 27.9703 98.904 27.9703Z" fill="#151E36"/>
</g>
<defs>
<clipPath id="clip0">
<rect width="139" height="59.1608" fill="white" transform="translate(0 0.276367)"/>
</clipPath>
</defs>
</svg>
