<svg width="79" height="69" viewBox="0 0 79 69" fill="none" xmlns="http://www.w3.org/2000/svg">
<path fill-rule="evenodd" clip-rule="evenodd" d="M39.3659 46.8418C38.5163 46.8418 37.8281 47.5305 37.8281 48.3803V67.4186C37.8281 68.2686 38.5163 68.9575 39.3659 68.9575C40.2157 68.9575 40.9039 68.2686 40.9039 67.4186V48.3803C40.9039 47.5305 40.2157 46.8418 39.3659 46.8418Z" fill="#00264E"/>
<path fill-rule="evenodd" clip-rule="evenodd" d="M38.9633 6.15608C41.5395 6.15608 43.6353 8.25286 43.6353 10.8303C43.6353 13.4074 41.5395 15.5045 38.9633 15.5045C36.387 15.5045 34.2912 13.4074 34.2912 10.8303C34.2912 8.25286 36.387 6.15608 38.9633 6.15608ZM54.2385 42.3521V29.98C54.2385 23.7137 50.1263 18.3652 44.3904 16.3554C45.8214 14.9482 46.7109 12.9915 46.7109 10.8303C46.7109 6.55605 43.2351 3.07861 38.9633 3.07861C34.691 3.07861 31.2148 6.55605 31.2148 10.8303C31.2148 13.1044 32.1991 15.1527 33.7633 16.5718C28.3319 18.7299 24.4941 23.9264 24.4941 29.98V42.3521C24.4941 46.0864 27.4268 49.1638 31.1613 49.5057V67.4185C31.1613 68.2685 31.8499 68.9572 32.6993 68.9572C33.5488 68.9572 34.2375 68.2685 34.2375 67.4185V30.4103C34.2375 29.5605 33.5488 28.8716 32.6993 28.8716C31.8499 28.8716 31.1613 29.5605 31.1613 30.4103V46.4068C29.1273 46.0883 27.5701 44.3916 27.5701 42.3521V29.98C27.5701 23.6949 32.8617 18.5819 39.3664 18.5819C45.8707 18.5819 51.1623 23.6949 51.1623 29.98V42.3521C51.1623 44.319 49.7139 45.9671 47.7866 46.3677V30.4103C47.7866 29.5605 47.098 28.8716 46.2486 28.8716C45.399 28.8716 44.7106 29.5605 44.7106 30.4103V67.4185C44.7106 68.2685 45.399 68.9574 46.2486 68.9574C47.098 68.9574 47.7866 68.2685 47.7866 67.4185V49.4823C51.4177 49.0438 54.2385 46.0145 54.2385 42.3521Z" fill="#00264E"/>
<path fill-rule="evenodd" clip-rule="evenodd" d="M65.3024 6.59009L64.4842 10.3027C64.3014 11.1326 64.8251 11.9538 65.6548 12.1368C65.7664 12.1612 65.8776 12.1731 65.9877 12.1731C66.6937 12.1731 67.3299 11.6836 67.4881 10.9653L69.1022 3.6421C69.2851 2.81215 68.7611 1.99126 67.9316 1.80832L60.5627 0.182494C59.7329 -0.000752851 58.9124 0.523982 58.7298 1.35363C58.5469 2.18358 59.0706 3.00447 59.9004 3.18741L63.6259 4.00955L57.7857 7.7137C57.0687 8.1687 56.8557 9.11936 57.3105 9.83706C57.6031 10.2993 58.1017 10.5522 58.6109 10.5522C58.8926 10.5522 59.1772 10.4747 59.433 10.3127L65.3024 6.59009Z" fill="#00264E"/>
<path fill-rule="evenodd" clip-rule="evenodd" d="M53.6825 10.5986C54.5317 10.5986 55.2203 11.2875 55.2203 12.1372C55.2203 12.9868 54.5317 13.6758 53.6825 13.6758C52.8332 13.6758 52.1445 12.9868 52.1445 12.1372C52.1445 11.2875 52.8332 10.5986 53.6825 10.5986Z" fill="#00264E"/>
<path fill-rule="evenodd" clip-rule="evenodd" d="M69.2917 53.3343C69.1085 52.5044 68.2879 51.9793 67.4584 52.1631C66.6287 52.3461 66.105 53.167 66.2879 53.9969L67.1061 57.7095L61.2367 53.9868C60.5192 53.5316 59.5691 53.7449 59.1143 54.4625C58.6594 55.1805 58.8723 56.1308 59.5896 56.5858L65.4297 60.2901L61.704 61.1122C60.8747 61.2952 60.3505 62.1163 60.5334 62.9459C60.6918 63.6644 61.3278 64.1536 62.034 64.1536C62.1433 64.1536 62.2549 64.1417 62.3665 64.1171L69.7354 62.4914C70.5647 62.3084 71.0889 61.4871 70.9058 60.6574L69.2917 53.3343Z" fill="#00264E"/>
<path fill-rule="evenodd" clip-rule="evenodd" d="M55.485 50.6235C56.3344 50.6235 57.023 51.3125 57.023 52.1622C57.023 53.0118 56.3344 53.7007 55.485 53.7007C54.6359 53.7007 53.9473 53.0118 53.9473 52.1622C53.9473 51.3125 54.6359 50.6235 55.485 50.6235Z" fill="#00264E"/>
<path fill-rule="evenodd" clip-rule="evenodd" d="M78.4187 31.4248L73.0609 26.1087C72.458 25.5104 71.4838 25.5144 70.8859 26.1176C70.2878 26.7209 70.2917 27.6954 70.8947 28.2937L73.6035 30.9813L66.6891 30.9874C65.8395 30.9882 65.1517 31.6776 65.1523 32.5275C65.153 33.3769 65.8414 34.0648 66.6903 34.0648H66.6918L73.6417 34.0589L70.9653 36.7589C70.3674 37.3621 70.3716 38.3365 70.9745 38.9347C71.2744 39.2325 71.6659 39.3807 72.0575 39.3807C72.4532 39.3807 72.849 39.2291 73.1497 38.9257L78.4277 33.601C79.0258 32.9976 79.0216 32.023 78.4187 31.4248Z" fill="#00264E"/>
<path fill-rule="evenodd" clip-rule="evenodd" d="M60.8571 30.9927C61.7065 30.9927 62.3951 31.6816 62.3951 32.5312C62.3951 33.3809 61.7065 34.0699 60.8571 34.0699C60.008 34.0699 59.3193 33.3809 59.3193 32.5312C59.3193 31.6816 60.008 30.9927 60.8571 30.9927Z" fill="#00264E"/>
<path fill-rule="evenodd" clip-rule="evenodd" d="M21.2168 7.7138L15.3767 4.00997L19.1025 3.18782C19.9318 3.00489 20.456 2.18368 20.2731 1.35374C20.0903 0.523777 19.2698 -0.000956878 18.4399 0.182604L11.0713 1.80843C10.2417 1.99136 9.71781 2.81257 9.90066 3.6422L11.5148 10.9654C11.6733 11.6837 12.3094 12.1732 13.0152 12.1732C13.1249 12.1732 13.2365 12.1613 13.348 12.1369C14.1776 11.9539 14.7015 11.1328 14.5186 10.3031L13.7003 6.59019L19.5698 10.3131C19.8255 10.4751 20.1103 10.5523 20.3919 10.5523C20.9011 10.5523 21.3997 10.2994 21.6923 9.83747C22.1471 9.11946 21.9341 8.1688 21.2168 7.7138Z" fill="#00264E"/>
<path fill-rule="evenodd" clip-rule="evenodd" d="M25.319 10.5986C26.1684 10.5986 26.857 11.2875 26.857 12.1372C26.857 12.9868 26.1684 13.6758 25.319 13.6758C24.4699 13.6758 23.7812 12.9868 23.7812 12.1372C23.7812 11.2875 24.4699 10.5986 25.319 10.5986Z" fill="#00264E"/>
<path fill-rule="evenodd" clip-rule="evenodd" d="M17.7661 53.987L11.8966 57.7094L12.7149 53.9968C12.8978 53.1669 12.3739 52.346 11.544 52.1631C10.7151 51.9795 9.89395 52.5043 9.71108 53.3342L8.09695 60.6574C7.9141 61.4871 8.43797 62.3084 9.26755 62.4913L16.6362 64.117C16.7481 64.1419 16.8593 64.1536 16.9691 64.1536C17.6752 64.1536 18.3113 63.6639 18.4694 62.9459C18.6523 62.1162 18.1284 61.2951 17.2988 61.112L13.5729 60.29L19.4131 56.586C20.1304 56.1308 20.3433 55.1803 19.8885 54.4624C19.4337 53.7448 18.4835 53.5318 17.7661 53.987Z" fill="#00264E"/>
<path fill-rule="evenodd" clip-rule="evenodd" d="M23.5165 50.6235C24.3656 50.6235 25.0543 51.3125 25.0543 52.1622C25.0543 53.0118 24.3656 53.7007 23.5165 53.7007C22.6672 53.7007 21.9785 53.0118 21.9785 52.1622C21.9785 51.3125 22.6672 50.6235 23.5165 50.6235Z" fill="#00264E"/>
<path fill-rule="evenodd" clip-rule="evenodd" d="M8.03615 36.7588L5.35989 34.0592L12.3097 34.0651H12.3109C13.1599 34.0651 13.8482 33.3768 13.8491 32.5278C13.8497 31.6779 13.1618 30.9883 12.3122 30.9877L5.39772 30.9818L8.1065 28.2942C8.70945 27.6958 8.7135 26.7216 8.11523 26.118C7.51728 25.5151 6.54361 25.5108 5.94035 26.1092L0.582817 31.4251C-0.0201322 32.0233 -0.0242074 32.9979 0.573747 33.6011L5.8522 38.9258C6.1529 39.2294 6.5483 39.381 6.94434 39.381C7.33568 39.381 7.72703 39.2326 8.0271 38.9348C8.63036 38.3366 8.63442 37.3622 8.03615 36.7588Z" fill="#00264E"/>
<path fill-rule="evenodd" clip-rule="evenodd" d="M18.144 30.9932C18.9933 30.9932 19.6816 31.6817 19.6816 32.5312C19.6816 33.381 18.9933 34.0699 18.144 34.0699C17.2947 34.0699 16.6064 33.381 16.6064 32.5312C16.6064 31.6817 17.2947 30.9932 18.144 30.9932Z" fill="#00264E"/>
</svg>
