<svg width="122" height="62" viewBox="0 0 122 62" fill="none" xmlns="http://www.w3.org/2000/svg">
<path d="M28.6018 59.1659C44.3982 59.1659 57.2037 46.2984 57.2037 30.4256C57.2037 14.5527 44.3982 1.68518 28.6018 1.68518C12.8055 1.68518 0 14.5527 0 30.4256C0 46.2984 12.8055 59.1659 28.6018 59.1659Z" fill="#3A4C57" fill-opacity="0.13"/>
<path d="M89.4251 59.1659C105.221 59.1659 118.027 46.2984 118.027 30.4256C118.027 14.5527 105.221 1.68518 89.4251 1.68518C73.6287 1.68518 60.8232 14.5527 60.8232 30.4256C60.8232 46.2984 73.6287 59.1659 89.4251 59.1659Z" fill="#FED579"/>
<path d="M92.2298 58.8136C107.833 58.8136 120.481 46.1038 120.481 30.4255C120.481 14.7471 107.833 2.03735 92.2298 2.03735C76.627 2.03735 63.9785 14.7471 63.9785 30.4255C63.9785 46.1038 76.627 58.8136 92.2298 58.8136Z" stroke="black" stroke-width="0.5"/>
<path opacity="0.5" d="M59.0137 60.7855V1.40906" stroke="#151E36" stroke-width="0.5" stroke-dasharray="2 2 2 2 2 2"/>
</svg>
