<svg width="118" height="75" viewBox="0 0 118 75" fill="none" xmlns="http://www.w3.org/2000/svg">
<g opacity="0.9">
<path opacity="0.6" d="M57.0552 31.0632L41.3672 45.0627" stroke="#151E36" stroke-width="0.5" stroke-dasharray="2 2 2 2 2 2 2 2"/>
<path opacity="0.6" d="M93.5807 23.5271L72.6562 25.6328" stroke="#151E36" stroke-width="0.5" stroke-dasharray="2 2 2 2 2 2"/>
<path opacity="0.6" d="M13.9902 18.0293L21.4593 37.68" stroke="#151E36" stroke-width="0.5" stroke-dasharray="2 2 2 2 2 2 2 2"/>
<path opacity="0.6" d="M85.9363 42.4585L72.459 26.3213" stroke="#151E36" stroke-width="0.5" stroke-dasharray="2 2"/>
<path opacity="0.9" d="M44.2521 53.0198C43.6252 43.6904 35.5509 36.6354 26.2175 37.262C16.8841 37.8885 9.82604 45.9594 10.4529 55.2888C11.0797 64.6182 19.1541 71.6732 28.4875 71.0466C37.8209 70.4201 44.8789 62.3492 44.2521 53.0198Z" fill="#FED06A"/>
<path opacity="0.9" d="M72.6002 25.3012C72.2733 20.4369 68.0634 16.7585 63.1971 17.0852C58.3307 17.4119 54.6507 21.62 54.9776 26.4842C55.3044 31.3485 59.5143 35.0269 64.3806 34.7002C69.247 34.3735 72.927 30.1654 72.6002 25.3012Z" fill="#FED06A"/>
<path opacity="0.9" d="M111.368 22.6984C111.041 17.8341 106.831 14.1557 101.965 14.4824C97.0983 14.8091 93.4183 19.0172 93.7451 23.8814C94.072 28.7457 98.2819 32.4241 103.148 32.0974C108.015 31.7707 111.695 27.5626 111.368 22.6984Z" fill="#FED06A"/>
<path opacity="0.9" d="M102.374 46.8947C102.047 42.0304 97.8369 38.352 92.9705 38.6787C88.1042 39.0054 84.4242 43.2135 84.751 48.0778C85.0778 52.942 89.2877 56.6204 94.1541 56.2937C99.0204 55.967 102.7 51.7589 102.374 46.8947Z" fill="#FED06A"/>
<path opacity="0.9" d="M19.565 8.80753C19.2382 3.94327 15.0283 0.264856 10.1619 0.591548C5.29558 0.918241 1.61557 5.12633 1.9424 9.99058C2.26923 14.8548 6.47913 18.5333 11.3455 18.2066C16.2118 17.8799 19.8918 13.6718 19.565 8.80753Z" fill="#FED06A"/>
<path opacity="0.9" d="M42.5909 53.0301C41.9697 43.7839 33.9672 36.7917 24.717 37.4127C15.4668 38.0337 8.47162 46.0327 9.09288 55.2789C9.71414 64.5252 17.7166 71.5173 26.9668 70.8963C36.217 70.2754 43.2122 62.2764 42.5909 53.0301Z" stroke="black" stroke-width="0.2"/>
<path opacity="0.9" d="M70.938 25.311C70.6167 20.5299 66.4788 16.9144 61.6956 17.2355C56.9124 17.5566 53.2953 21.6927 53.6166 26.4739C53.9378 31.255 58.0758 34.8705 62.859 34.5494C67.6421 34.2283 71.2592 30.0922 70.938 25.311Z" stroke="black" stroke-width="0.2"/>
<path opacity="0.9" d="M109.706 22.7085C109.384 17.9274 105.246 14.3118 100.463 14.6329C95.68 14.954 92.0629 19.0902 92.3842 23.8713C92.7054 28.6525 96.8434 32.268 101.627 31.9469C106.41 31.6258 110.027 27.4896 109.706 22.7085Z" stroke="black" stroke-width="0.2"/>
<path opacity="0.9" d="M100.712 46.9045C100.391 42.1234 96.2532 38.5078 91.47 38.829C86.6869 39.1501 83.0698 43.2863 83.391 48.0674C83.7122 52.8485 87.8502 56.4641 92.6334 56.1429C97.4165 55.8218 101.034 51.6857 100.712 46.9045Z" stroke="black" stroke-width="0.2"/>
<path opacity="0.9" d="M17.9028 8.81738C17.5816 4.03626 13.4436 0.420704 8.66046 0.741811C3.87729 1.06292 0.260174 5.19909 0.58142 9.98022C0.902665 14.7613 5.04062 18.3769 9.8238 18.0558C14.607 17.7347 18.2241 13.5985 17.9028 8.81738Z" stroke="black" stroke-width="0.2"/>
</g>
<g opacity="0.2">
<path opacity="0.6" d="M63.0954 33.8818L47.4072 47.8813" stroke="#151E36" stroke-width="0.5" stroke-dasharray="2 2 2 2 2 2 2 2"/>
<path opacity="0.6" d="M99.6206 26.3457L78.6963 28.4514" stroke="#151E36" stroke-width="0.5" stroke-dasharray="2 2 2 2 2 2"/>
<path opacity="0.6" d="M20.0303 20.8477L27.4992 40.4984" stroke="#151E36" stroke-width="0.5" stroke-dasharray="2 2 2 2 2 2 2 2"/>
<path opacity="0.6" d="M91.9773 45.2773L78.5 29.1401" stroke="#151E36" stroke-width="0.5" stroke-dasharray="2 2"/>
<path opacity="0.2" d="M50.2931 55.8386C49.6663 46.5093 41.5919 39.4542 32.2585 40.0808C22.9251 40.7074 15.8671 48.7783 16.4939 58.1077C17.1207 67.437 25.1951 74.4921 34.5285 73.8655C43.8619 73.2389 50.92 65.168 50.2931 55.8386Z" fill="#B2B9BD"/>
<path opacity="0.2" d="M78.6402 28.1195C78.3134 23.2553 74.1035 19.5769 69.2371 19.9036C64.3708 20.2302 60.6908 24.4383 61.0176 29.3026C61.3444 34.1669 65.5543 37.8453 70.4207 37.5186C75.287 37.1919 78.967 32.9838 78.6402 28.1195Z" fill="#B2B9BD"/>
<path opacity="0.2" d="M117.408 25.517C117.081 20.6527 112.871 16.9743 108.005 17.301C103.138 17.6277 99.4583 21.8358 99.7852 26.7001C100.112 31.5643 104.322 35.2427 109.188 34.916C114.055 34.5893 117.735 30.3812 117.408 25.517Z" fill="#B2B9BD"/>
<path opacity="0.2" d="M108.414 49.7131C108.087 44.8488 103.877 41.1704 99.0105 41.4971C94.1442 41.8238 90.4642 46.0319 90.791 50.8961C91.1179 55.7604 95.3278 59.4388 100.194 59.1121C105.06 58.7854 108.74 54.5773 108.414 49.7131Z" fill="#B2B9BD"/>
<path opacity="0.2" d="M25.605 11.6261C25.2782 6.76187 21.0683 3.08345 16.202 3.41015C11.3356 3.73684 7.65562 7.94493 7.98244 12.8092C8.30927 17.6734 12.5192 21.3519 17.3855 21.0252C22.2519 20.6985 25.9319 16.4904 25.605 11.6261Z" fill="#B2B9BD"/>
</g>
</svg>
