<svg width="137" height="60" viewBox="0 0 137 60" fill="none" xmlns="http://www.w3.org/2000/svg">
<path opacity="0.99" d="M124.38 27.6205C124.529 28.2878 124.63 28.9625 124.681 29.6436L124.432 29.6622C124.457 29.996 124.469 30.3313 124.469 30.6682C124.469 31.005 124.457 31.3404 124.432 31.6741L124.681 31.6927C124.63 32.3738 124.529 33.0485 124.38 33.7158L124.136 33.6611C123.99 34.3105 123.798 34.9532 123.56 35.5884L123.794 35.6761C123.558 36.3072 123.278 36.9305 122.956 37.5454L122.734 37.4293C122.428 38.0139 122.083 38.5911 121.7 39.1603L121.907 39.2998C121.534 39.8556 121.125 40.4033 120.682 40.9423L120.489 40.7836C120.068 41.2956 119.616 41.7999 119.135 42.2961L119.314 42.4702C118.849 42.9494 118.356 43.4206 117.837 43.8834L117.671 43.6968C117.176 44.1385 116.656 44.5726 116.112 44.9988L116.267 45.1956C115.739 45.6092 115.19 46.0152 114.62 46.4131L114.477 46.2081C113.93 46.5897 113.363 46.964 112.777 47.3306L112.91 47.5425C112.341 47.8991 111.753 48.2483 111.149 48.5898L111.026 48.3722C110.444 48.7014 109.845 49.0236 109.231 49.3383L109.345 49.5608C108.746 49.8679 108.133 50.1679 107.505 50.4605L107.399 50.2339C106.792 50.5174 106.17 50.7941 105.536 51.0635L105.634 51.2936C105.014 51.5574 104.381 51.8143 103.737 52.0641L103.646 51.831C103.02 52.0741 102.382 52.3105 101.733 52.5399L101.816 52.7756C101.179 53.0008 100.532 53.2193 99.8756 53.431L99.7989 53.193C99.1574 53.3997 98.5065 53.5998 97.8466 53.7931L97.9169 54.0331C97.2672 54.2234 96.6088 54.4071 95.9422 54.5841L95.8781 54.3424C95.225 54.5158 94.5639 54.6827 93.8951 54.8429L93.9534 55.086C93.2953 55.2436 92.6299 55.3948 91.9574 55.5394L91.9048 55.295C91.245 55.4368 90.5784 55.5723 89.9053 55.7012L89.9523 55.9467C89.2868 56.0742 88.615 56.1953 87.9372 56.3098L87.8955 56.0633C87.2283 56.1761 86.5552 56.2825 85.8766 56.3824L85.913 56.6297C85.2409 56.7287 84.5634 56.8213 83.8807 56.9074L83.8495 56.6594C83.178 56.7441 82.5015 56.8225 81.8203 56.8945L81.8466 57.1431C81.1722 57.2144 80.4932 57.2794 79.8098 57.338L79.7884 57.0889C79.1134 57.1467 78.4341 57.1983 77.7508 57.2436L77.7673 57.493C77.0888 57.5379 76.4063 57.5765 75.7201 57.6087L75.7084 57.359C75.031 57.3908 74.35 57.4163 73.6656 57.4355L73.6726 57.6854C72.9939 57.7044 72.312 57.7171 71.6269 57.7235L71.6246 57.4735C71.2834 57.4767 70.9415 57.4783 70.5988 57.4783C70.2561 57.4783 69.9142 57.4767 69.573 57.4735L69.5707 57.7235C68.8856 57.7171 68.2036 57.7044 67.525 57.6854L67.532 57.4355C66.8476 57.4163 66.1666 57.3908 65.4892 57.359L65.4775 57.6087C64.7913 57.5765 64.1088 57.5379 63.4303 57.493L63.4468 57.2436C62.7634 57.1983 62.0841 57.1467 61.4092 57.0889L61.3878 57.338C60.7044 57.2794 60.0254 57.2144 59.351 57.1431L59.3773 56.8945C58.696 56.8225 58.0196 56.7441 57.3481 56.6594L57.3168 56.9074C56.6342 56.8213 55.9567 56.7287 55.2846 56.6297L55.321 56.3824C54.6423 56.2825 53.9693 56.1761 53.3021 56.0633L53.2604 56.3098C52.5826 56.1953 51.9107 56.0742 51.2452 55.9467L51.2923 55.7012C50.6191 55.5723 49.9525 55.4368 49.2927 55.295L49.2402 55.5394C48.5677 55.3948 47.9023 55.2436 47.2442 55.086L47.3024 54.8429C46.6337 54.6827 45.9726 54.5158 45.3195 54.3424L45.2554 54.5841C44.5887 54.4071 43.9304 54.2234 43.2807 54.0331L43.351 53.7931C42.6911 53.5998 42.0402 53.3997 41.3987 53.193L41.322 53.431C40.6652 53.2193 40.0181 53.0008 39.3812 52.7756L39.4646 52.5399C38.8159 52.3105 38.178 52.0741 37.5511 51.831L37.4607 52.0641C36.8165 51.8143 36.1838 51.5574 35.5633 51.2936L35.6611 51.0635C35.0272 50.7941 34.406 50.5174 33.7981 50.2339L33.6924 50.4605C33.0649 50.1679 32.4514 49.8679 31.8524 49.5608L31.9664 49.3383C31.3525 49.0236 30.754 48.7014 30.1715 48.3722L30.0484 48.5898C29.4442 48.2483 28.857 47.8991 28.2874 47.5425L28.4201 47.3306C27.8345 46.964 27.2679 46.5897 26.721 46.2081L26.5779 46.4131C26.0076 46.0152 25.4583 45.6092 24.9309 45.1956L25.0851 44.9988C24.5417 44.5726 24.0219 44.1385 23.5266 43.6968L23.3602 43.8834C22.8412 43.4206 22.3486 42.9494 21.8835 42.4702L22.0628 42.2961C21.5811 41.7999 21.1295 41.2956 20.7089 40.7836L20.5157 40.9423C20.073 40.4033 19.664 39.8556 19.2902 39.2998L19.4976 39.1603C19.1148 38.5911 18.7695 38.0139 18.4632 37.4294L18.2418 37.5454C17.9196 36.9305 17.6397 36.3072 17.4035 35.6761L17.6376 35.5885C17.3999 34.9532 17.2075 34.3105 17.0619 33.6612L16.8179 33.7158C16.6684 33.0485 16.5673 32.3738 16.5166 31.6927L16.7659 31.6742C16.7411 31.3404 16.7285 31.005 16.7285 30.6682C16.7285 30.3313 16.7411 29.996 16.7659 29.6622L16.5166 29.6436C16.5673 28.9625 16.6684 28.2878 16.8179 27.6205L17.0619 27.6752C17.2075 27.0258 17.3999 26.3831 17.6376 25.7479L17.4035 25.6603C17.6397 25.0292 17.9196 24.4058 18.2418 23.791L18.4632 23.907C18.7695 23.3225 19.1148 22.7452 19.4976 22.176L19.2902 22.0365C19.664 21.4807 20.073 20.933 20.5157 20.394L20.7089 20.5527C21.1294 20.0408 21.5811 19.5364 22.0628 19.0402L21.8834 18.8661C22.3486 18.387 22.8412 17.9158 23.3602 17.453L23.5266 17.6395C24.0219 17.1979 24.5417 16.7637 25.0851 16.3375L24.9309 16.1408C25.4583 15.7271 26.0076 15.3211 26.5779 14.9232L26.721 15.1282C27.2679 14.7466 27.8345 14.3723 28.4201 14.0057L28.2874 13.7938C28.857 13.4373 29.4442 13.088 30.0484 12.7465L30.1715 12.9642C30.754 12.6349 31.3525 12.3128 31.9664 11.998L31.8524 11.7756C32.4514 11.4685 33.0649 11.1685 33.6924 10.8758L33.7981 11.1024C34.406 10.8189 35.0272 10.5423 35.6611 10.2728L35.5633 10.0427C36.1838 9.77894 36.8165 9.52202 37.4607 9.27222L37.5511 9.50531C38.178 9.26222 38.8159 9.02587 39.4646 8.79648L39.3812 8.56078C40.0181 8.33553 40.6652 8.11698 41.322 7.90535L41.3987 8.14331C42.0402 7.9366 42.6911 7.7365 43.351 7.5432L43.2807 7.30328C43.9304 7.11296 44.5887 6.92923 45.2554 6.75226L45.3195 6.99389C45.9726 6.82052 46.6337 6.65364 47.3024 6.49344L47.2442 6.25032C47.9023 6.09268 48.5677 5.9415 49.2402 5.79693L49.2927 6.04135C49.9525 5.89951 50.6191 5.76405 51.2922 5.63514L51.2452 5.3896C51.9107 5.26214 52.5825 5.14107 53.2604 5.02652L53.302 5.27303C53.9693 5.16028 54.6423 5.05387 55.321 4.95394L55.2846 4.70661C55.9567 4.60766 56.6342 4.51505 57.3168 4.42893L57.3481 4.67697C58.0196 4.59226 58.696 4.51384 59.3773 4.44184L59.351 4.19323C60.0254 4.12195 60.7044 4.05696 61.3878 3.99837L61.4091 4.24746C62.0841 4.18959 62.7634 4.13799 63.4468 4.09277L63.4302 3.84332C64.1088 3.79842 64.7913 3.75981 65.4775 3.7276L65.4892 3.97733C66.1666 3.94554 66.8476 3.92001 67.532 3.90085L67.525 3.65094C68.2036 3.63195 68.8856 3.6192 69.5707 3.61282L69.573 3.86281C69.9142 3.85963 70.2561 3.85803 70.5988 3.85803C70.9415 3.85803 71.2834 3.85963 71.6245 3.86281L71.6269 3.61282C72.3119 3.6192 72.9939 3.63195 73.6725 3.65094L73.6655 3.90085C74.35 3.92001 75.031 3.94554 75.7083 3.97733L75.7201 3.7276C76.4063 3.75981 77.0888 3.79842 77.7673 3.84332L77.7508 4.09277C78.4341 4.13798 79.1134 4.18959 79.7884 4.24746L79.8098 3.99837C80.4932 4.05696 81.1722 4.12195 81.8466 4.19323L81.8203 4.44184C82.5015 4.51384 83.178 4.59226 83.8494 4.67696L83.8807 4.42893C84.5634 4.51505 85.2409 4.60765 85.913 4.70661L85.8765 4.95394C86.5552 5.05386 87.2283 5.16027 87.8955 5.27302L87.9372 5.02652C88.615 5.14106 89.2868 5.26214 89.9523 5.3896L89.9053 5.63513C90.5784 5.76405 91.245 5.89951 91.9048 6.04135L91.9574 5.79693C92.6298 5.9415 93.2953 6.09268 93.9534 6.25032L93.8951 6.49344C94.5639 6.65364 95.225 6.82051 95.8781 6.99389L95.9422 6.75226C96.6088 6.92923 97.2672 7.11296 97.9169 7.30328L97.8466 7.5432C98.5065 7.7365 99.1574 7.9366 99.7989 8.14331L99.8756 7.90535C100.532 8.11698 101.179 8.33553 101.816 8.56078L101.733 8.79647C102.382 9.02587 103.02 9.26222 103.646 9.50531L103.737 9.27222C104.381 9.52202 105.014 9.77894 105.634 10.0427L105.536 10.2728C106.17 10.5423 106.792 10.8189 107.399 11.1024L107.505 10.8758C108.133 11.1685 108.746 11.4685 109.345 11.7756L109.231 11.998C109.845 12.3128 110.444 12.6349 111.026 12.9642L111.149 12.7465C111.753 13.088 112.341 13.4373 112.91 13.7938L112.777 14.0057C113.363 14.3723 113.93 14.7466 114.477 15.1282L114.62 14.9232C115.19 15.3211 115.739 15.7271 116.267 16.1408L116.112 16.3375C116.656 16.7637 117.176 17.1979 117.671 17.6395L117.837 17.4529C118.356 17.9158 118.849 18.387 119.314 18.8661L119.135 19.0402C119.616 19.5364 120.068 20.0408 120.489 20.5527L120.682 20.394C121.125 20.933 121.534 21.4807 121.907 22.0365L121.7 22.176C122.083 22.7452 122.428 23.3224 122.734 23.907L122.956 23.7909C123.278 24.4058 123.558 25.0292 123.794 25.6603L123.56 25.7479C123.798 26.3831 123.99 27.0258 124.136 27.6752L124.38 27.6205Z" stroke="#9194A1" stroke-width="0.5" stroke-dasharray="2 2 2 2 2 2 2 2"/>
<circle r="13.6424" transform="matrix(1 0 0 -1 122.709 30.1176)" fill="#FED579"/>
<circle r="13.5424" transform="matrix(1 0 0 -1 121.15 30.6862)" stroke="black" stroke-width="0.2"/>
<circle r="13.6424" transform="matrix(1 0 0 -1 14.9539 30.2312)" fill="#FED579"/>
<circle r="13.5424" transform="matrix(1 0 0 -1 13.6424 30.6864)" stroke="black" stroke-width="0.2"/>
<circle cx="85.0302" cy="5.41203" r="5.16203" fill="white" stroke="black" stroke-width="0.5"/>
<circle cx="49.4853" cy="54.5879" r="5.16203" fill="white" stroke="black" stroke-width="0.5"/>
<circle cx="93.1494" cy="55.0224" r="2.20601" fill="black" stroke="black"/>
<circle cx="46.2441" cy="6.80697" r="2.20601" fill="black" stroke="black"/>
</svg>
