<svg width="105" height="105" viewBox="0 0 105 105" fill="none" xmlns="http://www.w3.org/2000/svg">
<path d="M52.3859 0.174805C23.5507 0.174805 0.175781 23.5497 0.175781 52.3849C0.175781 81.2201 23.5507 104.595 52.3859 104.595C81.2211 104.595 104.596 81.2201 104.596 52.3849C104.596 23.5497 81.2211 0.174805 52.3859 0.174805ZM73.6235 42.9436C73.6452 43.3896 73.6507 43.8355 73.6507 44.2706C73.6507 57.867 63.312 73.5355 44.3967 73.5355C38.8074 73.5448 33.3345 71.9395 28.6357 68.9127C29.4352 69.0106 30.2564 69.0487 31.0885 69.0487C35.9071 69.0487 40.3395 67.4117 43.8583 64.6489C41.7139 64.6068 39.6361 63.8967 37.9145 62.6177C36.1929 61.3386 34.9132 59.5543 34.2538 57.5135C35.7937 57.8063 37.3801 57.7449 38.8928 57.334C36.5654 56.8634 34.4724 55.6022 32.9687 53.7645C31.465 51.9267 30.6431 49.6255 30.6426 47.2509V47.1258C32.0294 47.8927 33.6175 48.3604 35.3034 48.4148C33.1214 46.9623 31.5768 44.7311 30.9854 42.1775C30.394 39.6239 30.8006 36.9408 32.1218 34.677C34.7049 37.8531 37.9262 40.4514 41.5771 42.3035C45.2281 44.1557 49.2273 45.2205 53.3159 45.429C52.7961 43.2226 53.0198 40.9063 53.9523 38.8402C54.8847 36.7741 56.4736 35.074 58.472 34.004C60.4704 32.9341 62.7663 32.5544 65.0028 32.924C67.2392 33.2935 69.2909 34.3916 70.8389 36.0475C73.1403 35.5922 75.3474 34.748 77.3652 33.5512C76.5981 35.934 74.9922 37.9574 72.8457 39.2454C74.8844 38.9998 76.875 38.4518 78.752 37.6192C77.3733 39.6853 75.6365 41.4884 73.6235 42.9436Z" fill="#151E36"/>
</svg>
