<svg width="447" height="694" viewBox="0 0 447 694" fill="none" xmlns="http://www.w3.org/2000/svg">
<path d="M83.5102 128.144C203.477 147.702 40.7464 340.675 265.33 380.685C489.914 420.696 132.68 581.958 12.713 562.4C-107.254 542.842 -188.657 429.775 -169.107 309.859C-149.557 189.942 -36.4564 108.585 83.5102 128.144Z" fill="#FED06A" fill-opacity="0.63"/>
<path d="M66.1536 118.632C81.1121 121.07 91.6396 126.207 99.0647 133.39C106.49 140.574 110.834 149.824 113.389 160.527C115.944 171.233 116.706 183.379 116.976 196.341C117.078 201.236 117.11 206.25 117.143 211.345C117.197 219.73 117.252 228.336 117.623 236.997C118.816 264.856 123.282 293.403 141.529 317.489C159.78 341.579 191.786 361.163 247.97 371.173C276.031 376.172 294.969 383.06 306.415 391.228C312.135 395.31 315.975 399.705 318.152 404.336C320.328 408.964 320.85 413.842 319.913 418.904C318.037 429.042 310.304 439.93 298.241 450.978C286.186 462.019 269.838 473.192 250.789 483.904C212.693 505.329 163.83 524.897 116.994 537.885C70.1502 550.876 25.3729 557.275 -4.5632 552.395C-124.394 532.859 -205.705 419.92 -186.177 300.14C-166.649 180.36 -53.6769 99.0956 66.1536 118.632Z" stroke="black" stroke-opacity="0.8" stroke-width="0.5"/>
</svg>
